<svg width="850" height="806" viewBox="0 0 850 806" fill="none" xmlns="http://www.w3.org/2000/svg">
<g clip-path="url(#clip0_1_26)">
<path d="M178.604 469.329H176.547V468.04H177.227V467.395H178.604V469.329Z" fill="#EBEBEB"/>
<path d="M173.827 469.329H171.107V468.04H173.827V469.329ZM168.387 469.329H165.667V468.04H168.387V469.329ZM162.93 469.329H160.21V468.04H162.93V469.329ZM157.49 469.329H154.77V468.04H157.49V469.329ZM152.05 469.329H149.313V468.04H152.05V469.329ZM146.593 469.329H143.873V468.04H146.593V469.329ZM141.153 469.329H138.433V468.04H141.153V469.329ZM135.696 469.329H132.976V468.04H135.696V469.329ZM130.256 469.329H127.536V468.04H130.256V469.329ZM124.816 469.329H122.079V468.04H124.816V469.329ZM119.359 469.329H116.639V468.04H119.359V469.329ZM113.919 469.329H111.199V468.04H113.919V469.329ZM108.462 469.329H105.742V468.04H108.462V469.329ZM103.022 469.329H100.302V468.04H103.022V469.329ZM97.582 469.329H94.845V468.04H97.582V469.329ZM92.125 469.329H89.405V468.04H92.125V469.329ZM86.685 469.329H83.965V468.04H86.685V469.329Z" fill="#EBEBEB"/>
<path d="M81.228 469.329H79.188V467.395H80.548V468.04H81.228V469.329Z" fill="#EBEBEB"/>
<path d="M80.548 464.816H79.188V462.237H80.548V464.816ZM80.548 459.641H79.188V457.062H80.548V459.641ZM80.548 454.483H79.188V451.904H80.548V454.483ZM80.548 449.325H79.188V446.729H80.548V449.325ZM80.548 444.15H79.188V441.571H80.548V444.15ZM80.548 438.992H79.188V436.412H80.548V438.992ZM80.548 433.817H79.188V431.238H80.548V433.817ZM80.548 428.659H79.188V426.08H80.548V428.659ZM80.548 423.5H79.188V420.905H80.548V423.5ZM80.548 418.326H79.188V415.747H80.548V418.326ZM80.548 413.167H79.188V410.588H80.548V413.167ZM80.548 407.993H79.188V405.414H80.548V407.993ZM80.548 402.834H79.188V400.255H80.548V402.834ZM80.548 397.676H79.188V395.081H80.548V397.676ZM80.548 392.502H79.188V389.922H80.548V392.502ZM80.548 387.343H79.188V384.699H80.548V387.343ZM80.548 382.169H79.188V379.589H80.548V382.169Z" fill="#EBEBEB"/>
<path d="M80.548 377.01H79.188V375.076H81.228V376.365H80.548V377.01Z" fill="#EBEBEB"/>
<path d="M173.827 376.365H171.107V375.027H173.827V376.365ZM168.387 376.365H165.667V375.027H168.387V376.365ZM162.93 376.365H160.21V375.027H162.93V376.365ZM157.49 376.365H154.77V375.027H157.49V376.365ZM152.05 376.365H149.313V375.027H152.05V376.365ZM146.593 376.365H143.873V375.027H146.593V376.365ZM141.153 376.365H138.433V375.027H141.153V376.365ZM135.696 376.365H132.976V375.027H135.696V376.365ZM130.256 376.365H127.536V375.027H130.256V376.365ZM124.816 376.365H122.079V375.027H124.816V376.365ZM119.359 376.365H116.639V375.027H119.359V376.365ZM113.919 376.365H111.199V375.027H113.919V376.365ZM108.462 376.365H105.742V375.027H108.462V376.365ZM103.022 376.365H100.302V375.027H103.022V376.365ZM97.582 376.365H94.845V375.027H97.582V376.365ZM92.125 376.365H89.405V375.027H92.125V376.365ZM86.685 376.365H83.965V375.027H86.685V376.365Z" fill="#EBEBEB"/>
<path d="M178.604 377.01H177.227V376.365H176.547V375.076H178.604V377.01Z" fill="#EBEBEB"/>
<path d="M178.604 464.816H177.227V462.237H178.604V464.816ZM178.604 459.641H177.227V457.062H178.604V459.641ZM178.604 454.483H177.227V451.904H178.604V454.483ZM178.604 449.325H177.227V446.729H178.604V449.325ZM178.604 444.15H177.227V441.571H178.604V444.15ZM178.604 438.992H177.227V436.412H178.604V438.992ZM178.604 433.817H177.227V431.238H178.604V433.817ZM178.604 428.659H177.227V426.08H178.604V428.659ZM178.604 423.5H177.227V420.905H178.604V423.5ZM178.604 418.326H177.227V415.747H178.604V418.326ZM178.604 413.167H177.227V410.588H178.604V413.167ZM178.604 407.993H177.227V405.414H178.604V407.993ZM178.604 402.834H177.227V400.255H178.604V402.834ZM178.604 397.676H177.227V395.081H178.604V397.676ZM178.604 392.502H177.227V389.922H178.604V392.502ZM178.604 387.343H177.227V384.699H178.604V387.343ZM178.604 382.185H177.227V379.589H178.604V382.185Z" fill="#EBEBEB"/>
<path d="M85.988 462.898H73.765V474.488H85.988V462.898Z" fill="white"/>
<path d="M86.6 475.117H73V462.221H86.6V475.117ZM74.377 473.827H85.24V463.542H74.445L74.377 473.827Z" fill="#EBEBEB"/>
<path d="M86.039 416.408H73.816V427.998H86.039V416.408Z" fill="white"/>
<path d="M86.6 428.643H73V415.747H86.6V428.643ZM74.377 427.353H85.24V417.052H74.445L74.377 427.353Z" fill="#EBEBEB"/>
<path d="M86.039 369.934H73.816V381.524H86.039V369.934Z" fill="white"/>
<path d="M86.6 382.152H73V369.257H86.6V382.152ZM74.377 380.863H85.24V370.578H74.445L74.377 380.863Z" fill="#EBEBEB"/>
<path d="M184.078 462.898H171.855V474.488H184.078V462.898Z" fill="white"/>
<path d="M184.707 475.117H171.107V462.221H184.707V475.117ZM172.484 473.827H183.347V463.542H172.484V473.827Z" fill="#EBEBEB"/>
<path d="M184.078 416.408H171.855V427.998H184.078V416.408Z" fill="white"/>
<path d="M184.707 428.643H171.107V415.747H184.707V428.643ZM172.484 427.353H183.347V417.052H172.484V427.353Z" fill="#EBEBEB"/>
<path d="M184.078 369.934H171.855V381.524H184.078V369.934Z" fill="white"/>
<path d="M184.707 382.152H171.107V369.257H184.707V382.152ZM172.484 380.863H183.347V370.578H172.484V380.863Z" fill="#EBEBEB"/>
<path d="M135.067 369.934H122.844V381.524H135.067V369.934Z" fill="white"/>
<path d="M135.679 382.152H122.079V369.257H135.679V382.152ZM123.473 380.863H134.319V370.578H123.473V380.863Z" fill="#EBEBEB"/>
<path d="M135.016 462.898H122.793V474.488H135.016V462.898Z" fill="white"/>
<path d="M135.679 475.117H122.079V462.221H135.679V475.117ZM123.473 473.827H134.319V463.542H123.473V473.827Z" fill="#EBEBEB"/>
<path d="M765.835 271.602H763.795V270.296H764.475V269.651H765.835V271.602Z" fill="#EBEBEB"/>
<path d="M761.075 271.602H758.338V270.247H761.075V271.602ZM755.618 271.602H752.898V270.247H755.618V271.602ZM750.178 271.602H747.458V270.247H750.178V271.602ZM744.721 271.602H742.001V270.247H744.721V271.602ZM739.281 271.602H736.561V270.247H739.281V271.602ZM733.841 271.602H731.104V270.247H733.841V271.602ZM728.384 271.602H725.664V270.247H728.384V271.602ZM722.944 271.602H720.224V270.247H722.944V271.602ZM717.487 271.602H714.767V270.247H717.487V271.602ZM712.047 271.602H709.327V270.247H712.047V271.602ZM706.607 271.602H703.87V270.247H706.607V271.602ZM701.15 271.602H698.43V270.247H701.15V271.602ZM695.71 271.602H692.99V270.247H695.71V271.602ZM690.253 271.602H687.533V270.247H690.253V271.602ZM684.813 271.602H682.093V270.247H684.813V271.602ZM679.373 271.602H676.636V270.247H679.373V271.602ZM673.916 271.602H671.196V270.247H673.916V271.602Z" fill="#EBEBEB"/>
<path d="M668.476 271.602H666.436V269.651H667.796V270.296H668.476V271.602Z" fill="#EBEBEB"/>
<path d="M667.796 267.023H666.436V264.444H667.796V267.023ZM667.796 261.865H666.436V259.286H667.796V261.865ZM667.796 256.691H666.436V254.127H667.796V256.691ZM667.796 251.532H666.436V248.953H667.796V251.532ZM667.796 246.374H666.436V243.778H667.796V246.374ZM667.796 241.199H666.436V238.62H667.796V241.199ZM667.796 236.041H666.436V233.462H667.796V236.041ZM667.796 230.866H666.436V228.335H667.796V230.866ZM667.796 225.708H666.436V223.129H667.796V225.708ZM667.796 220.55H666.436V217.954H667.796V220.55ZM667.796 215.375H666.436V212.796H667.796V215.375ZM667.796 210.217H666.436V207.637H667.796V210.217ZM667.796 205.058H666.436V202.543H667.796V205.058ZM667.796 199.884H666.436V197.304H667.796V199.884ZM667.796 194.725H666.436V192.146H667.796V194.725ZM667.796 189.551H666.436V186.972H667.796V189.551ZM667.796 184.392H666.436V181.813H667.796V184.392Z" fill="#EBEBEB"/>
<path d="M667.796 179.282H666.436V177.332H668.476V178.638H667.796V179.282Z" fill="#EBEBEB"/>
<path d="M761.075 178.621H758.338V177.332H761.075V178.621ZM755.618 178.621H752.898V177.332H755.618V178.621ZM750.178 178.621H747.458V177.332H750.178V178.621ZM744.721 178.621H742.001V177.332H744.721V178.621ZM739.281 178.621H736.561V177.332H739.281V178.621ZM733.841 178.621H731.104V177.332H733.841V178.621ZM728.384 178.621H725.664V177.332H728.384V178.621ZM722.944 178.621H720.224V177.332H722.944V178.621ZM717.487 178.621H714.767V177.332H717.487V178.621ZM712.047 178.621H709.327V177.332H712.047V178.621ZM706.607 178.621H703.87V177.332H706.607V178.621ZM701.15 178.621H698.43V177.332H701.15V178.621ZM695.71 178.621H692.99V177.332H695.71V178.621ZM690.253 178.621H687.533V177.332H690.253V178.621ZM684.813 178.621H682.093V177.332H684.813V178.621ZM679.373 178.621H676.636V177.332H679.373V178.621ZM673.916 178.621H671.196V177.332H673.916V178.621Z" fill="#EBEBEB"/>
<path d="M765.835 179.282H764.475V178.638H763.795V177.332H765.835V179.282Z" fill="#EBEBEB"/>
<path d="M765.835 267.023H764.475V264.444H765.835V267.023ZM765.835 261.865H764.475V259.286H765.835V261.865ZM765.835 256.691H764.475V254.127H765.835V256.691ZM765.835 251.532H764.475V248.953H765.835V251.532ZM765.835 246.374H764.475V243.778H765.835V246.374ZM765.835 241.199H764.475V238.62H765.835V241.199ZM765.835 236.041H764.475V233.462H765.835V236.041ZM765.835 230.866H764.475V228.335H765.835V230.866ZM765.835 225.708H764.475V223.129H765.835V225.708ZM765.835 220.55H764.475V217.954H765.835V220.55ZM765.835 215.375H764.475V212.796H765.835V215.375ZM765.835 210.217H764.475V207.637H765.835V210.217ZM765.835 205.058H764.475V202.543H765.835V205.058ZM765.835 199.884H764.475V197.304H765.835V199.884ZM765.835 194.725H764.475V192.146H765.835V194.725ZM765.835 189.551H764.475V186.972H765.835V189.551ZM765.835 184.392H764.475V181.813H765.835V184.392Z" fill="#EBEBEB"/>
<path d="M673.219 265.154H660.996V276.744H673.219V265.154Z" fill="white"/>
<path d="M673.899 277.389H660.299V264.493H673.899V277.389ZM661.676 276.099H672.539V265.798H661.676V276.099Z" fill="#EBEBEB"/>
<path d="M673.27 218.68H661.047V230.27H673.27V218.68Z" fill="white"/>
<path d="M673.899 230.899H660.299V218.003H673.899V230.899ZM661.676 229.609H672.539V219.324H661.676V229.609Z" fill="#EBEBEB"/>
<path d="M673.27 172.19H661.047V183.78H673.27V172.19Z" fill="white"/>
<path d="M673.899 184.425H660.299V171.529H673.899V184.425ZM661.676 183.135H672.539V172.834H661.676V183.135Z" fill="#EBEBEB"/>
<path d="M771.326 265.154H759.103V276.744H771.326V265.154Z" fill="white"/>
<path d="M771.938 277.389H758.338V264.493H771.938V277.389ZM759.732 276.099H770.578V265.798H759.8L759.732 276.099Z" fill="#EBEBEB"/>
<path d="M771.326 218.68H759.103V230.27H771.326V218.68Z" fill="white"/>
<path d="M771.938 230.899H758.338V218.003H771.938V230.899ZM759.732 229.609H770.578V219.324H759.8L759.732 229.609Z" fill="#EBEBEB"/>
<path d="M771.326 172.19H759.103V183.78H771.326V172.19Z" fill="white"/>
<path d="M771.938 184.425H758.338V171.529H771.938V184.425ZM759.8 183.199H770.646V172.899H759.8V183.199Z" fill="#EBEBEB"/>
<path d="M722.298 172.19H710.075V183.78H722.298V172.19Z" fill="white"/>
<path d="M722.927 184.425H709.327V171.529H722.927V184.425ZM710.704 183.135H721.567V172.834H710.704V183.135Z" fill="#EBEBEB"/>
<path d="M722.247 265.154H710.024V276.744H722.247V265.154Z" fill="white"/>
<path d="M722.927 277.389H709.327V264.493H722.927V277.389ZM710.704 276.099H721.567V265.798H710.704V276.099Z" fill="#EBEBEB"/>
<path d="M309.844 207.476H94.556V67.8125H309.844V207.476ZM96.256 205.864H308.144V69.4245H96.256V205.864Z" fill="#EBEBEB"/>
<path d="M111.386 76.8075C111.386 77.6109 111.135 78.3963 110.664 79.0643C110.193 79.7324 109.524 80.253 108.741 80.5605C107.959 80.868 107.097 80.9484 106.266 80.7917C105.435 80.6349 104.672 80.248 104.073 79.6799C103.474 79.1118 103.066 78.388 102.9 77.6C102.735 76.812 102.82 75.9952 103.144 75.2529C103.468 74.5106 104.017 73.8762 104.722 73.4299C105.426 72.9835 106.255 72.7452 107.102 72.7452C108.238 72.7452 109.328 73.1732 110.131 73.935C110.935 74.6969 111.386 75.7301 111.386 76.8075Z" fill="#A6A6A6"/>
<path d="M128.879 76.8075C128.879 77.6109 128.628 78.3963 128.157 79.0643C127.686 79.7324 127.017 80.253 126.234 80.5605C125.452 80.868 124.59 80.9484 123.759 80.7917C122.928 80.6349 122.165 80.248 121.566 79.6799C120.967 79.1118 120.559 78.388 120.393 77.6C120.228 76.812 120.313 75.9952 120.637 75.2529C120.961 74.5106 121.51 73.8762 122.215 73.4299C122.919 72.9835 123.748 72.7452 124.595 72.7452C125.731 72.7452 126.821 73.1732 127.624 73.935C128.428 74.6969 128.879 75.7301 128.879 76.8075Z" fill="#EBEBEB"/>
<path d="M146.389 76.8075C146.389 77.6109 146.138 78.3963 145.667 79.0643C145.196 79.7324 144.527 80.253 143.744 80.5605C142.962 80.868 142.1 80.9484 141.269 80.7917C140.438 80.6349 139.675 80.248 139.076 79.6799C138.477 79.1118 138.069 78.388 137.903 77.6C137.738 76.812 137.823 75.9952 138.147 75.2529C138.471 74.5106 139.02 73.8762 139.725 73.4299C140.429 72.9835 141.258 72.7452 142.105 72.7452C143.241 72.7452 144.331 73.1732 145.134 73.935C145.938 74.6969 146.389 75.7301 146.389 76.8075Z" fill="#2480FF"/>
<path d="M308.994 83.9648H95.406V85.5768H308.994V83.9648Z" fill="#EBEBEB"/>
<path d="M88.096 340.66C88.6726 340.32 89.338 340.139 90.017 340.139C90.696 340.139 91.3614 340.32 91.938 340.66L92.907 341.175L93.927 341.675C94.54 341.938 95.0636 342.358 95.439 342.888C95.8143 343.418 96.0266 344.036 96.052 344.674L96.205 349.123L111.505 348.671L111.352 344.222C111.358 343.594 111.543 342.98 111.887 342.443C112.231 341.907 112.722 341.469 113.307 341.175C113.98 340.834 114.633 340.457 115.262 340.047C115.81 339.675 116.457 339.455 117.13 339.412C117.802 339.369 118.474 339.505 119.07 339.805L123.201 341.917L130.46 329.021L126.312 326.925C125.722 326.616 125.233 326.16 124.897 325.606C124.561 325.052 124.392 324.421 124.408 323.782C124.45 323.063 124.45 322.341 124.408 321.622C124.35 320.988 124.479 320.352 124.779 319.783C125.079 319.214 125.539 318.734 126.108 318.398L130.103 316.044L122.028 303.696L117.999 306.05C117.427 306.385 116.768 306.563 116.095 306.563C115.422 306.563 114.763 306.385 114.191 306.05L113.222 305.534C112.882 305.362 112.542 305.201 112.202 305.051C111.589 304.783 111.066 304.36 110.691 303.828C110.316 303.296 110.103 302.676 110.077 302.036L109.924 297.571L94.624 298.022L94.76 302.471C94.7982 303.127 94.6376 303.779 94.2971 304.35C93.9567 304.921 93.4507 305.388 92.839 305.695C92.1697 306.04 91.5226 306.422 90.901 306.84C90.3498 307.206 89.7025 307.421 89.0305 307.461C88.3586 307.501 87.6881 307.364 87.093 307.066L82.945 304.97L75.703 317.866L79.8 319.736C80.4044 320.05 80.9035 320.518 81.2402 321.089C81.5769 321.659 81.7376 322.307 81.704 322.96C81.6616 323.685 81.6616 324.411 81.704 325.136C81.7617 325.77 81.6334 326.406 81.3334 326.975C81.0334 327.544 80.5733 328.024 80.004 328.36L76.009 330.697L84.084 343.062L88.096 340.66ZM91.938 317.705C93.1143 315.628 94.9138 313.929 97.1088 312.823C99.3038 311.716 101.796 311.252 104.269 311.489C106.742 311.727 109.085 312.654 111.003 314.154C112.92 315.655 114.324 317.661 115.039 319.919C115.753 322.176 115.745 324.584 115.015 326.838C114.286 329.091 112.868 331.089 110.941 332.577C109.013 334.066 106.664 334.979 104.189 335.201C101.714 335.424 99.2255 334.944 97.038 333.825C94.1099 332.326 91.9284 329.787 90.9723 326.765C90.0162 323.743 90.3635 320.484 91.938 317.705Z" fill="#EBEBEB"/>
<path d="M127.298 285.046C127.534 284.656 127.88 284.337 128.298 284.126C128.716 283.915 129.189 283.821 129.661 283.853H131.259C131.729 283.825 132.198 283.919 132.614 284.127C133.031 284.335 133.38 284.647 133.622 285.03L135.322 287.738L144.621 282.66L142.921 279.952C142.686 279.56 142.571 279.114 142.589 278.664C142.607 278.214 142.758 277.778 143.023 277.405C143.313 276.977 143.58 276.536 143.822 276.083C144.034 275.685 144.356 275.35 144.755 275.114C145.154 274.878 145.613 274.75 146.083 274.745H149.381V264.557H146.1C145.63 264.554 145.17 264.427 144.77 264.191C144.371 263.954 144.049 263.618 143.839 263.219C143.584 262.768 143.329 262.333 143.04 261.913C142.775 261.54 142.624 261.104 142.606 260.654C142.588 260.204 142.703 259.758 142.938 259.366L144.638 256.658L135.339 251.564L133.639 254.289C133.4 254.674 133.052 254.988 132.634 255.196C132.217 255.404 131.746 255.497 131.276 255.465H129.695C129.225 255.497 128.754 255.404 128.337 255.196C127.919 254.988 127.571 254.674 127.332 254.289L125.632 251.564L116.316 256.658L118.016 259.366C118.266 259.746 118.399 260.184 118.399 260.632C118.399 261.079 118.266 261.518 118.016 261.897C117.727 262.333 117.455 262.768 117.217 263.219C117.006 263.621 116.681 263.958 116.278 264.195C115.876 264.431 115.412 264.557 114.939 264.557H111.539V274.745H114.82C115.295 274.749 115.759 274.878 116.161 275.117C116.563 275.356 116.887 275.696 117.098 276.099C117.338 276.548 117.604 276.984 117.897 277.405C118.147 277.787 118.279 278.228 118.279 278.678C118.279 279.128 118.147 279.569 117.897 279.952L116.197 282.66L125.7 287.738L127.298 285.046ZM121.654 269.667C121.651 268.015 122.164 266.399 123.13 265.024C124.095 263.648 125.47 262.576 127.078 261.941C128.687 261.307 130.458 261.139 132.168 261.459C133.877 261.78 135.448 262.574 136.681 263.741C137.914 264.908 138.754 266.396 139.096 268.016C139.437 269.636 139.263 271.316 138.597 272.843C137.931 274.37 136.803 275.675 135.354 276.593C133.906 277.511 132.202 278.001 130.46 278.001C128.127 278.001 125.89 277.124 124.239 275.561C122.588 273.999 121.659 271.879 121.654 269.667Z" fill="#EBEBEB"/>
<path d="M739.4 555.991C738.989 555.763 738.654 555.431 738.431 555.032C738.209 554.634 738.109 554.184 738.142 553.734C738.142 553.492 738.142 553.25 738.142 552.992C738.142 552.734 738.142 552.493 738.142 552.235C738.108 551.789 738.207 551.343 738.426 550.947C738.645 550.551 738.977 550.221 739.383 549.994L742.239 548.382L736.884 539.564L734.028 541.176C733.614 541.395 733.144 541.502 732.671 541.485C732.197 541.468 731.737 541.328 731.342 541.08C730.895 540.799 730.429 540.546 729.948 540.322C729.529 540.118 729.177 539.808 728.931 539.427C728.686 539.046 728.555 538.609 728.554 538.162V535.051H717.81V538.162C717.809 538.611 717.677 539.05 717.428 539.432C717.179 539.813 716.822 540.121 716.399 540.322C715.925 540.549 715.465 540.802 715.022 541.08C714.627 541.328 714.167 541.468 713.693 541.485C713.22 541.502 712.75 541.395 712.336 541.176L709.48 539.564L704.108 548.382L706.981 549.994C707.385 550.22 707.714 550.547 707.933 550.94C708.152 551.332 708.252 551.775 708.222 552.218C708.222 552.476 708.222 552.718 708.222 552.976C708.222 553.234 708.222 553.476 708.222 553.718C708.253 554.166 708.154 554.613 707.935 555.011C707.716 555.409 707.386 555.742 706.981 555.974L704.108 557.586L709.48 566.404L712.336 564.792C712.747 564.573 713.214 564.466 713.685 564.483C714.156 564.5 714.613 564.64 715.005 564.889C715.464 565.163 715.923 565.421 716.399 565.646C716.822 565.847 717.179 566.155 717.428 566.537C717.677 566.918 717.809 567.358 717.81 567.807V570.918H728.571V567.823C728.572 567.374 728.704 566.934 728.953 566.553C729.202 566.171 729.559 565.863 729.982 565.663C730.456 565.435 730.916 565.182 731.359 564.905C731.754 564.657 732.214 564.516 732.688 564.499C733.161 564.482 733.631 564.589 734.045 564.808L736.901 566.42L742.256 557.603L739.4 555.991ZM723.182 561.342C721.44 561.346 719.735 560.859 718.285 559.943C716.835 559.027 715.703 557.724 715.034 556.199C714.365 554.673 714.188 552.994 714.526 551.373C714.864 549.752 715.701 548.263 716.932 547.093C718.163 545.924 719.732 545.127 721.441 544.804C723.149 544.48 724.921 544.645 726.531 545.276C728.141 545.908 729.517 546.978 730.486 548.351C731.454 549.725 731.971 551.34 731.971 552.992C731.971 555.201 731.048 557.32 729.404 558.885C727.76 560.45 725.529 561.334 723.199 561.342H723.182Z" fill="#EBEBEB"/>
<path d="M335.48 607.139H245.108V702.022H335.48V607.139Z" fill="#EBEBEB"/>
<path d="M198.494 702.022H245.159V607.123H198.494V702.022Z" fill="#DBDBDB"/>
<path d="M282.61 627.66H284.531H285.959L286.792 626.08L287.931 627.66L289.495 624.404L290.974 627.66H295.207H297.128L297.825 625.484L298.488 627.66H299.746V607.156H282.61V627.66Z" fill="white"/>
<path d="M201.656 695.509C205.056 688.75 208.456 681.979 211.856 675.198L222.056 654.79L232.052 634.285C235.361 627.451 238.637 620.583 241.878 613.684C238.478 620.444 235.078 627.214 231.678 633.995L221.478 654.403L211.499 674.86C208.178 681.748 204.897 688.631 201.656 695.509Z" fill="#EBEBEB"/>
<path d="M201.656 613.7C204.897 620.578 208.178 627.44 211.499 634.285L221.495 654.79L231.695 675.198C235.095 682.001 238.495 688.771 241.895 695.509C238.654 688.631 235.373 681.764 232.052 674.908L222.056 654.403L211.856 633.995C208.524 627.214 205.124 620.449 201.656 613.7Z" fill="#EBEBEB"/>
<path d="M359.705 512.402H269.333V607.284H359.705V512.402Z" fill="#EBEBEB"/>
<path d="M222.702 607.284H269.367V512.386H222.702V607.284Z" fill="#DBDBDB"/>
<path d="M306.835 532.923H308.756H310.184L311 531.343L312.156 532.923L313.72 529.667L315.199 532.907H319.432H321.353L322.05 530.747L322.713 532.907H323.971V512.402L306.835 512.418V532.923Z" fill="white"/>
<path d="M225.881 600.708C229.281 593.948 232.681 587.177 236.081 580.396L246.281 559.988L256.277 539.484C259.575 532.649 262.85 525.782 266.103 518.882C262.703 525.642 259.303 532.412 255.903 539.194L245.703 559.602L235.707 580.106C232.409 587.006 229.134 593.873 225.881 600.708Z" fill="#EBEBEB"/>
<path d="M225.881 518.947C229.134 525.846 232.415 532.713 235.724 539.548L245.72 560.053L255.92 580.461C259.32 587.242 262.72 594.012 266.12 600.772C262.879 593.873 259.598 587.005 256.277 580.171L246.281 559.666L236.081 539.258C232.76 532.477 229.36 525.706 225.881 518.947Z" fill="#EBEBEB"/>
<path d="M425 757.575C610.711 757.575 761.26 745.429 761.26 730.446C761.26 715.462 610.711 703.316 425 703.316C239.289 703.316 88.74 715.462 88.74 730.446C88.74 745.429 239.289 757.575 425 757.575Z" fill="#EBEBEB"/>
<path d="M79.866 693.37L166.158 692.967L252.433 692.838L425 692.564L597.567 692.838L683.842 692.967L770.117 693.37L683.842 693.756L597.567 693.902L425 694.176L252.433 693.902L166.158 693.756L79.866 693.37Z" fill="#263238"/>
<path d="M832 112.375H0V540.563H832V112.375Z" fill="white"/>
<path d="M833 523.433H-13V111.631H833V523.433ZM-11.7468 522.578H831.77V112.485H-11.77L-11.7468 522.578Z" fill="#DBDBDB"/>
<path d="M832.373 112.05H-12.3966V126.332H832.373V112.05Z" fill="#2480FF"/>
<path d="M3.87172 119.288C3.87172 119.989 3.57228 120.675 3.01127 121.258C2.45026 121.841 1.65288 122.296 0.719947 122.564C-0.212981 122.833 -1.23955 122.903 -2.22994 122.766C-3.22033 122.629 -4.13008 122.292 -4.84411 121.796C-5.55815 121.3 -6.0444 120.668 -6.2414 119.98C-6.4384 119.292 -6.3373 118.579 -5.95087 117.931C-5.56444 117.283 -4.91004 116.729 -4.07042 116.339C-3.23081 115.95 -2.24368 115.742 -1.23389 115.742C0.120206 115.742 1.41884 116.115 2.37632 116.78C3.33381 117.445 3.87172 118.347 3.87172 119.288Z" fill="#263238"/>
<path d="M24.7583 119.288C24.7583 119.989 24.4588 120.675 23.8978 121.258C23.3368 121.841 22.5394 122.296 21.6065 122.564C20.6736 122.833 19.647 122.903 18.6566 122.766C17.6662 122.629 16.7565 122.292 16.0425 121.796C15.3284 121.3 14.8422 120.668 14.6452 119.98C14.4482 119.292 14.5493 118.579 14.9357 117.931C15.3221 117.283 15.9765 116.729 16.8161 116.339C17.6558 115.95 18.6429 115.742 19.6527 115.742C20.324 115.739 20.9893 115.83 21.6101 116.007C22.231 116.185 22.795 116.446 23.2697 116.776C23.7445 117.105 24.1204 117.497 24.3759 117.928C24.6314 118.36 24.7614 118.822 24.7583 119.288Z" fill="white"/>
<path d="M45.6449 119.288C45.6449 119.99 45.3449 120.676 44.7828 121.26C44.2208 121.843 43.422 122.298 42.4877 122.566C41.5535 122.834 40.5257 122.903 39.5347 122.765C38.5437 122.627 37.634 122.288 36.9209 121.79C36.2078 121.292 35.7234 120.659 35.529 119.97C35.3346 119.281 35.439 118.567 35.829 117.92C36.219 117.272 36.877 116.719 37.7197 116.331C38.5623 115.944 39.5517 115.738 40.5625 115.742C41.2319 115.742 41.8947 115.833 42.5128 116.012C43.131 116.19 43.6923 116.452 44.1645 116.781C44.6368 117.111 45.0107 117.502 45.2647 117.932C45.5188 118.362 45.648 118.823 45.6449 119.288Z" fill="#455A64"/>
<path d="M832.373 126.349H-12.3966V174.032H832.373V126.349Z" fill="#37474F"/>
<path d="M254 139.68H32.1847V160.7H254V139.68Z" fill="white"/>
<path d="M254.302 160.91H31.8598V139.454H254.302V160.91ZM32.4864 160.475H253.675V139.889H32.4864V160.475Z" fill="#C7C7C7"/>
<path d="M254.302 139.454H223.413V160.91H254.302V139.454Z" fill="#2480FF"/>
<path d="M248.454 156.074L245.669 157.541L240.586 152.801L238.707 151.061C239.096 150.956 239.463 150.815 239.797 150.641C240.429 150.302 240.918 149.851 241.213 149.336L243.232 151.189L248.454 156.074Z" fill="white"/>
<path d="M242.907 144.887C241.988 144.042 240.729 143.407 239.289 143.061C237.849 142.715 236.294 142.675 234.82 142.945C233.347 143.215 232.023 143.783 231.016 144.577C230.008 145.371 229.364 146.355 229.164 147.404C228.964 148.453 229.218 149.52 229.893 150.469C230.568 151.417 231.635 152.205 232.956 152.732C234.277 153.259 235.795 153.501 237.314 153.427C238.834 153.353 240.288 152.967 241.492 152.318C242.103 152.004 242.636 151.623 243.07 151.189C244.013 150.264 244.507 149.153 244.477 148.02C244.448 146.886 243.898 145.788 242.907 144.887ZM239.635 150.641C239.3 150.815 238.933 150.956 238.544 151.061C237.55 151.345 236.445 151.381 235.417 151.162C234.389 150.944 233.503 150.484 232.908 149.862C232.314 149.24 232.049 148.494 232.159 147.751C232.268 147.008 232.746 146.315 233.509 145.789C234.273 145.264 235.275 144.939 236.346 144.87C237.416 144.8 238.488 144.991 239.378 145.41C240.268 145.829 240.921 146.449 241.226 147.165C241.532 147.881 241.469 148.648 241.051 149.336C240.769 149.847 240.296 150.298 239.681 150.641H239.635Z" fill="white"/>
<path d="M40.1216 143.807H38.4971V156.557H40.1216V143.807Z" fill="#C7C7C7"/>
<path d="M788.117 139.454H757.228V143.645H788.117V139.454Z" fill="#EBEBEB"/>
<path d="M788.117 148.078H757.228V152.27H788.117V148.078Z" fill="#EBEBEB"/>
<path d="M788.117 156.719H757.228V160.91H788.117V156.719Z" fill="#EBEBEB"/>
<path d="M435.969 494.546H601.066V408.191H435.969V494.546Z" fill="#2480FF"/>
<path opacity="0.2" d="M453.699 427.083C453.092 429.233 453.495 431.461 454.848 433.439C456.202 435.417 458.435 437.041 461.218 438.071C464.001 439.101 467.186 439.483 470.305 439.161C473.424 438.838 476.312 437.827 478.541 436.279C480.771 434.73 482.225 432.724 482.69 430.558C483.155 428.391 482.605 426.179 481.122 424.246C479.639 422.313 477.301 420.762 474.453 419.821C471.605 418.881 468.397 418.601 465.303 419.023C462.436 419.416 459.803 420.392 457.737 421.828C455.671 423.263 454.265 425.092 453.699 427.083Z" fill="black"/>
<path opacity="0.2" d="M482.685 475.943H602.017L542.351 429.469L482.685 475.943Z" fill="black"/>
<path d="M435.946 475.975H534.461L485.215 445.718L435.946 475.975Z" fill="#2480FF"/>
<path opacity="0.3" d="M435.946 475.975H534.461L485.215 445.718L435.946 475.975Z" fill="black"/>
<path d="M601.043 475.943H435.946V494.545H601.043V475.943Z" fill="#2480FF"/>
<path opacity="0.3" d="M601.043 475.943H435.946V494.545H601.043V475.943Z" fill="black"/>
<path d="M557.575 290.66H435.621V297.785H557.575V290.66Z" fill="#A6A6A6"/>
<path d="M788.535 307.199H435.621V314.324H788.535V307.199Z" fill="#EBEBEB"/>
<path d="M788.535 322.867H435.621V329.993H788.535V322.867Z" fill="#EBEBEB"/>
<path d="M788.535 338.552H435.621V345.677H788.535V338.552Z" fill="#EBEBEB"/>
<path d="M788.535 354.237H435.621V361.362H788.535V354.237Z" fill="#EBEBEB"/>
<path d="M740.96 408.158H619.005V415.283H740.96V408.158Z" fill="#A6A6A6"/>
<path d="M788.512 424.698H619.005V431.823H788.512V424.698Z" fill="#EBEBEB"/>
<path d="M788.512 440.382H619.005V447.507H788.512V440.382Z" fill="#EBEBEB"/>
<path d="M788.512 456.051H619.005V463.176H788.512V456.051Z" fill="#EBEBEB"/>
<path d="M788.512 471.736H619.005V478.861H788.512V471.736Z" fill="#EBEBEB"/>
<path d="M788.512 487.42H619.005V494.546H788.512V487.42Z" fill="#EBEBEB"/>
<path d="M788.535 372.598H435.621V392.038H788.535V372.598Z" fill="#455A64"/>
<path d="M153.42 423.843H31.4652V430.968H153.42V423.843Z" fill="#A6A6A6"/>
<path d="M384.379 440.382H31.4652V447.507H384.379V440.382Z" fill="#EBEBEB"/>
<path d="M384.379 456.051H31.4652V463.176H384.379V456.051Z" fill="#EBEBEB"/>
<path d="M384.379 471.736H31.4652V478.861H384.379V471.736Z" fill="#EBEBEB"/>
<path d="M384.379 487.42H31.4652V494.546H384.379V487.42Z" fill="#EBEBEB"/>
<path d="M384.379 372.598H31.4652V392.038H384.379V372.598Z" fill="#455A64"/>
<path d="M788.72 277.973H784.659V277.167H787.56V275.152H788.72V277.973Z" fill="#A6A6A6"/>
<path d="M777.604 277.973H770.642V277.167H777.604V277.973ZM763.494 277.973H756.532V277.167H763.494V277.973ZM749.407 277.973H742.445V277.167H749.407V277.973ZM735.297 277.973H728.335V277.167H735.297V277.973ZM721.187 277.973H714.225V277.167H721.187V277.973ZM707.077 277.973H700.115V277.167H707.077V277.973ZM692.99 277.973H686.028V277.167H692.99V277.973ZM678.88 277.973H671.918V277.167H678.88V277.973ZM664.77 277.973H657.808V277.167H664.77V277.973ZM650.66 277.973H643.698V277.167H650.66V277.973ZM636.573 277.973H629.611V277.167H636.573V277.973ZM622.463 277.973H615.501V277.167H622.463V277.973ZM608.353 277.973H601.391V277.167H608.353V277.973ZM594.243 277.973H587.281V277.167H594.243V277.973ZM580.156 277.973H573.194V277.167H580.156V277.973ZM566.046 277.973H559.084V277.167H566.046V277.973ZM551.936 277.973H544.974V277.167H551.936V277.973ZM537.826 277.973H530.864V277.167H537.826V277.973ZM523.739 277.973H516.777V277.167H523.739V277.973ZM509.629 277.973H502.667V277.167H509.629V277.973ZM495.519 277.973H488.557V277.167H495.519V277.973ZM481.409 277.973H474.447V277.167H481.409V277.973ZM467.322 277.973H460.36V277.167H467.322V277.973ZM453.212 277.973H446.25V277.167H453.212V277.973Z" fill="#A6A6A6"/>
<path d="M439.102 277.973H435.041V275.152H436.201V277.167H439.102V277.973Z" fill="#A6A6A6"/>
<path d="M436.201 270.477H435.041V265.819H436.201V270.477ZM436.201 261.144H435.041V256.485H436.201V261.144ZM436.201 251.811H435.041V247.152H436.201V251.811ZM436.201 242.477H435.041V237.818H436.201V242.477ZM436.201 233.144H435.041V228.485H436.201V233.144ZM436.201 223.81H435.041V219.232H436.201V223.81ZM436.201 214.477H435.041V209.818H436.201V214.477ZM436.201 205.143H435.041V200.484H436.201V205.143Z" fill="#A6A6A6"/>
<path d="M436.201 195.81H435.041V192.989H439.102V193.795H436.201V195.81Z" fill="#A6A6A6"/>
<path d="M777.604 193.795H770.642V192.989H777.604V193.795ZM763.494 193.795H756.532V192.989H763.494V193.795ZM749.407 193.795H742.445V192.989H749.407V193.795ZM735.297 193.795H728.335V192.989H735.297V193.795ZM721.187 193.795H714.225V192.989H721.187V193.795ZM707.077 193.795H700.115V192.989H707.077V193.795ZM692.99 193.795H686.028V192.989H692.99V193.795ZM678.88 193.795H671.918V192.989H678.88V193.795ZM664.77 193.795H657.808V192.989H664.77V193.795ZM650.66 193.795H643.698V192.989H650.66V193.795ZM636.573 193.795H629.611V192.989H636.573V193.795ZM622.463 193.795H615.501V192.989H622.463V193.795ZM608.353 193.795H601.391V192.989H608.353V193.795ZM594.243 193.795H587.281V192.989H594.243V193.795ZM580.156 193.795H573.194V192.989H580.156V193.795ZM566.046 193.795H559.084V192.989H566.046V193.795ZM551.936 193.795H544.974V192.989H551.936V193.795ZM537.826 193.795H530.864V192.989H537.826V193.795ZM523.739 193.795H516.777V192.989H523.739V193.795ZM509.629 193.795H502.667V192.989H509.629V193.795ZM495.519 193.795H488.557V192.989H495.519V193.795ZM481.409 193.795H474.447V192.989H481.409V193.795ZM467.322 193.795H460.36V192.989H467.322V193.795ZM453.212 193.795H446.25V192.989H453.212V193.795Z" fill="#A6A6A6"/>
<path d="M788.72 195.81H787.56V193.795H784.659V192.989H788.72V195.81Z" fill="#A6A6A6"/>
<path d="M788.72 270.477H787.56V265.819H788.72V270.477ZM788.72 261.144H787.56V256.485H788.72V261.144ZM788.72 251.811H787.56V247.152H788.72V251.811ZM788.72 242.477H787.56V237.818H788.72V242.477ZM788.72 233.144H787.56V228.485H788.72V233.144ZM788.72 223.81H787.56V219.232H788.72V223.81ZM788.72 214.477H787.56V209.818H788.72V214.477ZM788.72 205.143H787.56V200.484H788.72V205.143Z" fill="#A6A6A6"/>
<path d="M582.573 549.918H322.949V712.939H582.573V549.918Z" fill="#37474F"/>
<path d="M480.732 640.373C485.906 625.736 477.587 609.893 462.151 604.987C446.715 600.081 430.007 607.97 424.833 622.607C419.659 637.244 427.978 653.087 443.414 657.993C458.851 662.899 475.558 655.01 480.732 640.373Z" fill="#455A64"/>
<path d="M440.334 643.253V619.621L471.495 631.42L440.334 643.253Z" fill="white"/>
<path d="M582.59 700.204H322.966V712.939H582.59V700.204Z" fill="#EBEBEB"/>
<path d="M557.209 704.686H338.691V708.458H557.209V704.686Z" fill="#C7C7C7"/>
<path d="M333.812 702.574H325.329V710.618H333.812V702.574Z" fill="#C7C7C7"/>
<path d="M328.933 704.009H327.318V709.183H328.933V704.009Z" fill="#A6A6A6"/>
<path d="M331.823 704.009H330.208V709.183H331.823V704.009Z" fill="#A6A6A6"/>
<path d="M569.177 702.526H560.694V710.57H569.177V702.526Z" fill="#C7C7C7"/>
<path d="M563.635 705.572H561.969V707.523H563.635V705.572Z" fill="#A6A6A6"/>
<path d="M565.488 708.78L562.989 707.523V705.572L565.488 704.315V708.78Z" fill="#A6A6A6"/>
<path d="M566.729 705.073L567.103 704.702C567.527 705.103 567.801 705.623 567.885 706.185C567.951 706.584 567.917 706.993 567.784 707.377C567.651 707.761 567.423 708.109 567.12 708.393L566.729 708.039C566.936 707.845 567.099 707.614 567.21 707.359C567.321 707.105 567.377 706.831 567.375 706.556C567.379 706.28 567.324 706.006 567.213 705.751C567.102 705.496 566.937 705.265 566.729 705.073Z" fill="#A6A6A6"/>
<path d="M566.355 707.668L565.964 707.313C566.072 707.215 566.157 707.098 566.216 706.968C566.274 706.837 566.304 706.697 566.304 706.556C566.306 706.414 566.277 706.273 566.219 706.143C566.16 706.012 566.073 705.895 565.964 705.798L566.338 705.427C566.647 705.726 566.821 706.126 566.824 706.544C566.827 706.962 566.659 707.365 566.355 707.668Z" fill="#A6A6A6"/>
<path d="M579.309 702.526H570.826V710.57H579.309V702.526Z" fill="#C7C7C7"/>
<path d="M575.688 703.815H572.186V707.136H575.688V703.815Z" fill="#A6A6A6"/>
<path d="M578 706.104H574.498V709.425H578V706.104Z" fill="white"/>
<path d="M379.644 706.588C379.637 707.242 379.794 707.889 380.103 708.474H338.708V704.686H380.12C379.805 705.275 379.642 705.927 379.644 706.588Z" fill="#A6A6A6"/>
<path d="M388.739 706.588C388.739 707.729 388.261 708.824 387.41 709.631C386.558 710.439 385.404 710.892 384.2 710.892C383.348 710.898 382.512 710.673 381.789 710.245C381.067 709.817 380.488 709.203 380.12 708.474C379.811 707.889 379.653 707.242 379.661 706.588C379.659 705.927 379.822 705.275 380.137 704.686C380.504 703.96 381.08 703.347 381.799 702.919C382.518 702.491 383.351 702.265 384.2 702.268C385.05 702.27 385.883 702.497 386.604 702.924C387.325 703.352 387.906 703.962 388.28 704.686C388.573 705.282 388.73 705.93 388.739 706.588Z" fill="#A6A6A6"/>
<path d="M679.745 721.451V603.791H438.158V721.451H679.745Z" fill="white"/>
<path d="M680.17 721.854H437.733V603.388H680.17V721.854ZM438.6 721.048H679.32V604.194H438.6V721.048Z" fill="#DBDBDB"/>
<path d="M452.761 706.153H554.251V619.089H452.761V706.153Z" fill="#2480FF"/>
<path opacity="0.2" d="M465.8 638.126C465.339 640.295 465.626 642.547 466.619 644.549C467.612 646.55 469.258 648.196 471.315 649.241C473.371 650.287 475.727 650.677 478.035 650.354C480.343 650.031 482.48 649.011 484.13 647.447C485.779 645.883 486.854 643.857 487.195 641.668C487.536 639.479 487.124 637.245 486.022 635.295C484.919 633.346 483.184 631.785 481.073 630.843C478.962 629.901 476.587 629.629 474.3 630.066C472.205 630.469 470.281 631.449 468.77 632.882C467.258 634.316 466.225 636.14 465.8 638.126Z" fill="black"/>
<path opacity="0.2" d="M481.338 687.389H554.251L517.786 640.528L481.338 687.389Z" fill="black"/>
<path d="M452.761 687.437H512.975L482.868 656.922L452.761 687.437Z" fill="#2480FF"/>
<path opacity="0.3" d="M452.761 687.437H512.975L482.868 656.922L452.761 687.437Z" fill="black"/>
<path d="M554.251 687.389H452.761V706.153H554.251V687.389Z" fill="#2480FF"/>
<path opacity="0.3" d="M554.251 687.389H452.761V706.153H554.251V687.389Z" fill="black"/>
<path d="M657.696 619.089H571.251V625.053H657.696V619.089Z" fill="#EBEBEB"/>
<path d="M657.696 631.436H571.251V637.401H657.696V631.436Z" fill="#EBEBEB"/>
<path d="M657.696 643.784H571.251V649.749H657.696V643.784Z" fill="#EBEBEB"/>
<path d="M657.696 656.132H571.251V662.097H657.696V656.132Z" fill="#EBEBEB"/>
<path d="M657.696 668.464H571.251V674.429H657.696V668.464Z" fill="#EBEBEB"/>
<path d="M679.592 632.871C679.592 632.871 652.919 627.149 638.299 614.365C623.679 601.582 615.519 578.708 615.519 578.708C625.652 580.549 635.642 583.038 645.422 586.155C649.087 589.723 652.139 593.813 654.466 598.278C654.694 595.391 654.694 592.492 654.466 589.605C657.876 591.007 661.068 592.846 663.952 595.07C676.158 605.145 679.592 632.871 679.592 632.871Z" fill="#2480FF"/>
<path d="M632.162 589.831C628.524 587.445 624.835 585.156 621.214 582.738C621.167 582.71 621.133 582.666 621.12 582.614C621.107 582.563 621.117 582.509 621.146 582.464C621.175 582.419 621.222 582.387 621.276 582.375C621.331 582.363 621.388 582.372 621.435 582.4C628.235 586.301 635.035 590.459 641.631 594.812C643.898 596.338 646.164 597.912 648.431 599.535L647.972 598.777C647.173 597.504 646.272 596.263 645.473 595.021C643.804 592.482 641.911 590.082 639.812 587.848C639.796 587.831 639.788 587.809 639.79 587.786C639.791 587.763 639.802 587.742 639.82 587.727C639.838 587.712 639.862 587.705 639.886 587.706C639.91 587.708 639.932 587.718 639.948 587.735C642.022 590.008 644.096 592.249 646 594.667C646.901 595.811 647.7 596.988 648.533 598.197C648.941 598.826 649.349 599.471 649.723 600.115L650.131 600.76C653.531 603.339 656.931 606.015 660.144 608.82C662.116 610.572 664.026 612.383 665.873 614.253C664.836 611.19 663.935 608.095 662.745 605.08C662.745 604.984 662.881 604.935 662.915 605.08C664.071 608.304 665.346 611.415 666.315 614.656C668.355 616.751 670.31 618.927 672.146 621.104C672.146 620.959 672.146 620.83 672.061 620.685C671.755 619.492 671.432 618.299 671.109 617.122C670.446 614.833 669.749 612.56 668.933 610.319C667.407 605.636 664.974 601.262 661.759 597.423C661.759 597.343 661.759 597.214 661.895 597.311C666.884 603.218 670.374 610.134 672.095 617.525C672.378 618.6 672.65 619.674 672.911 620.749C673.047 621.329 673.2 621.91 673.302 622.506C674.118 623.538 674.9 624.586 675.665 625.649C680.21 632.23 683.995 639.256 686.953 646.605C690.268 654.873 693.105 663.305 695.453 671.866C695.453 672.043 695.249 672.091 695.181 671.866C689.979 657.067 684.641 642.06 675.716 628.841C673.83 626.06 671.799 623.37 669.63 620.781C665.21 620.517 660.848 619.693 656.659 618.331C652.077 616.876 647.707 614.877 643.654 612.383C641.344 610.883 639.12 609.269 636.99 607.547C636.972 607.532 636.961 607.511 636.959 607.488C636.958 607.465 636.966 607.443 636.981 607.426C636.997 607.409 637.02 607.398 637.043 607.397C637.067 607.395 637.091 607.403 637.109 607.418C640.833 610.265 644.944 612.624 649.332 614.43C653.642 616.302 658.15 617.734 662.779 618.702C664.751 619.121 666.757 619.411 668.746 619.669C666.277 616.793 663.656 614.038 660.892 611.416C659.991 610.561 659.056 609.803 658.121 608.917C655.01 606.857 651.71 605.066 648.261 603.565C643.892 601.566 639.591 599.438 635.273 597.359C632.825 596.182 630.411 594.973 627.946 593.829C627.844 593.829 627.946 593.635 628.048 593.684C632.417 595.699 636.871 597.568 641.308 599.487C645.473 601.308 649.672 603.114 653.684 605.242L654.177 605.532C650.573 602.55 646.833 599.712 643.008 596.972C639.427 594.608 635.811 592.227 632.162 589.831Z" fill="#263238"/>
<path d="M633.675 602.888C635.851 603.791 638.061 604.597 640.203 605.548C642.345 606.499 644.504 607.676 646.595 608.852C646.697 608.852 646.595 609.014 646.51 608.981C644.385 608.014 642.243 607.111 640.135 606.112C638.027 605.113 635.834 603.984 633.624 603.065C633.522 603.001 633.573 602.888 633.675 602.888Z" fill="#263238"/>
<path d="M766.224 505.427C761.308 511.443 758.518 518.776 758.251 526.383C758.251 528.655 758.54 531.815 758.829 535.523C752.163 539.199 746.264 544.001 741.421 549.692C746.752 546.767 752.866 545.378 759.016 545.694C758.87 548.234 758.529 550.761 757.996 553.255C754.113 553.267 750.269 553.989 746.674 555.382C750.178 555.343 753.652 555.996 756.874 557.301C752.131 571.647 737.987 586.317 698.972 592.636C694.829 575.046 697.269 556.638 705.874 540.568C717.57 518.742 766.224 505.427 766.224 505.427Z" fill="#2480FF"/>
<path d="M685.457 653.988C686.137 647.863 686.981 641.753 687.99 635.66C689.967 623.468 692.594 611.378 695.861 599.438C697.39 593.835 699.269 588.323 701.488 582.931C701.383 581.951 701.338 580.966 701.352 579.981C701.352 578.789 701.352 577.612 701.352 576.419C701.352 574.049 701.488 571.68 701.709 569.326C702.09 564.643 702.892 560 704.106 555.447C704.82 552.819 705.636 550.224 706.452 547.613C706.46 547.595 706.473 547.581 706.49 547.57C706.506 547.56 706.526 547.554 706.545 547.554C706.565 547.554 706.585 547.56 706.601 547.57C706.618 547.581 706.631 547.595 706.639 547.613C705.337 552.159 704.371 556.786 703.749 561.46C703.058 566.061 702.621 570.694 702.44 575.339C702.44 576.612 702.44 577.886 702.44 579.159C702.44 579.707 702.44 580.256 702.44 580.771C704.358 576.351 706.555 572.045 709.019 567.875C712.981 561.257 717.447 554.921 722.381 548.918C722.387 548.22 722.496 547.525 722.704 546.855C722.874 546.033 723.078 545.243 723.265 544.372C723.673 542.76 724.115 541.003 724.591 539.343C725.56 535.99 726.852 532.75 727.991 529.429C727.991 529.332 728.195 529.429 728.161 529.429C727.124 532.653 726.461 536.103 725.662 539.44C725.271 541.052 724.88 542.744 724.506 544.405C724.302 545.221 724.115 546.044 723.945 546.871C723.937 546.935 723.937 547 723.945 547.064C725.509 545.178 727.124 543.308 728.773 541.487C736.219 533.201 744.396 525.544 752.573 517.968C753.576 517.033 754.613 516.114 755.633 515.195C755.652 515.187 755.673 515.184 755.694 515.187C755.715 515.191 755.734 515.2 755.749 515.214C755.764 515.228 755.774 515.246 755.777 515.266C755.781 515.286 755.778 515.306 755.769 515.324C747.898 523.094 740.163 530.961 732.836 539.198C731.102 541.143 729.402 543.12 727.736 545.13L730.388 543.518C732.666 542.1 734.961 540.729 737.341 539.472C739.721 538.215 742.084 536.989 744.515 535.845C746.946 534.7 749.7 533.701 752.114 532.379C752.216 532.379 752.301 532.492 752.199 532.524C749.736 533.612 747.355 534.861 745.076 536.264C742.696 537.602 740.333 538.956 738.004 540.359C735.675 541.761 733.397 543.099 731.119 544.501C729.232 545.662 727.362 546.935 725.39 548.016C720.86 553.528 716.682 559.294 712.878 565.28C710.518 569.048 708.362 572.927 706.418 576.903L707.829 576.322L711.399 574.823L718.301 571.954C722.67 570.148 727.124 568.504 731.408 566.521C733.827 565.441 736.167 564.207 738.412 562.83C738.514 562.83 738.599 562.91 738.514 562.975C730.507 568.214 721.514 571.889 712.674 575.613L708.832 577.225C707.778 577.66 706.724 578.16 705.636 578.547C703.022 584.113 700.818 589.844 699.04 595.698C695.547 607.478 692.709 619.423 690.54 631.485C688.296 643.575 686.783 655.745 685.61 667.964C685.457 669.496 685.321 671.011 685.134 672.526C685.134 672.655 685.08 672.778 684.985 672.868C684.889 672.959 684.759 673.01 684.624 673.01C684.489 673.01 684.359 672.959 684.263 672.868C684.168 672.778 684.114 672.655 684.114 672.526C684.114 666.369 684.777 660.162 685.457 653.988Z" fill="#263238"/>
<path d="M709.206 551.804C709.92 548.032 710.906 544.356 712.045 540.681C712.045 540.66 712.054 540.639 712.07 540.624C712.086 540.609 712.107 540.6 712.13 540.6C712.153 540.6 712.174 540.609 712.19 540.624C712.206 540.639 712.215 540.66 712.215 540.681C711.229 544.292 710.515 547.983 709.801 551.643C709.087 555.302 708.424 559.154 707.88 562.927H707.761C708.023 559.196 708.505 555.483 709.206 551.804Z" fill="#263238"/>
<path d="M726.019 562.008C728.739 560.313 731.579 558.8 734.519 557.478C735.947 556.785 737.392 556.124 738.82 555.447C740.248 554.77 741.863 554.206 743.325 553.496C743.427 553.496 743.529 553.609 743.41 553.658C741.999 554.335 740.639 555.157 739.228 555.882L734.91 558.123C732.097 559.673 729.203 561.088 726.24 562.362C726.192 562.379 726.138 562.379 726.09 562.363C726.041 562.346 726.001 562.314 725.974 562.272C725.948 562.23 725.938 562.18 725.946 562.132C725.955 562.084 725.98 562.04 726.019 562.008Z" fill="#263238"/>
<path opacity="0.1" d="M679.099 589.073C679.099 589.073 654.5 583.544 643.093 567.779C632.264 552.787 628.762 527.221 628.49 524.98C629 527.124 634.1 549.37 650.828 559.783C663.697 567.763 676.124 574.307 679.099 589.073Z" fill="#263238"/>
<path d="M656.319 548.628C660.71 552.454 663.864 557.385 665.414 562.846C663.603 557.517 660.466 552.679 656.268 548.741C656.2 548.676 656.2 548.547 656.319 548.628Z" fill="#263238"/>
<path d="M679.099 589.073C679.099 589.073 654.5 583.544 643.093 567.779C632.264 552.787 628.762 527.221 628.49 524.98C628.494 524.926 628.494 524.873 628.49 524.819C628.49 524.819 640.39 540.778 652.783 544.84C665.176 548.902 682.669 562.991 679.099 589.073Z" fill="#2480FF"/>
<path d="M632.842 533.572C635.051 537.872 637.602 542.005 640.475 545.936C643.365 549.68 646.799 553.018 650.675 555.85C654.075 558.381 657.475 560.686 660.875 563.136V563.023C660.229 562.12 659.549 561.25 658.852 560.396C657.441 558.687 655.894 557.075 654.33 555.479C651.27 552.255 648.142 549.225 645.388 545.807C643.863 543.92 642.536 541.895 641.427 539.762C641.427 539.665 641.546 539.617 641.597 539.762C645.609 547.661 653.599 552.658 659.311 559.412C660.11 560.363 660.892 561.347 661.589 562.362C662.158 563.101 662.631 563.902 663 564.748C666.158 567.109 669.011 569.814 671.5 572.808C671.287 571.276 670.951 569.762 670.497 568.278C669.926 566.196 669.05 564.199 667.896 562.346C667.896 562.249 667.981 562.153 668.032 562.249C669.227 564.101 670.196 566.075 670.922 568.133C671.439 569.779 671.742 571.479 671.823 573.195C673.068 574.762 674.204 576.404 675.223 578.112L674.917 576.612C674.424 574.275 673.88 571.954 673.217 569.649C672.056 564.962 670.049 560.501 667.284 556.462C667.284 556.462 667.369 556.285 667.437 556.366C670.264 560.347 672.48 564.689 674.016 569.262C674.798 571.551 675.427 573.888 675.988 576.242C676.26 577.386 676.498 578.547 676.736 579.707C676.855 580.304 676.991 580.916 677.093 581.529C679.544 586.629 681.452 591.948 682.788 597.407C685.168 607.179 686.877 617.087 687.905 627.068C689.185 637.495 689.753 647.989 689.605 658.486C689.605 659.808 689.503 661.13 689.435 662.435C689.435 662.774 688.874 662.822 688.857 662.435C688.619 657.245 688.483 652.054 688.16 646.863C687.837 641.673 687.344 636.482 686.766 631.308C685.662 621.14 683.959 611.038 681.666 601.05C679.677 592.491 677.076 583.883 672.146 576.387C669.696 572.654 666.696 569.273 663.238 566.344C659.838 563.41 655.996 560.815 652.358 558.09C648.659 555.439 645.303 552.382 642.362 548.983C639.341 545.207 636.71 541.164 634.508 536.909C633.93 535.845 633.335 534.797 632.808 533.685C632.638 533.572 632.791 533.572 632.842 533.572Z" fill="#263238"/>
<path d="M769.675 578.708C769.675 578.708 770.066 611.964 749.088 621.555C728.11 631.146 716.873 623.167 702.627 626.391C703.188 625.601 713.354 611.738 729.538 607.917C746.181 603.968 764.626 592.571 769.675 578.708Z" fill="#2480FF"/>
<path opacity="0.1" d="M769.675 578.708C769.675 578.708 770.066 611.964 749.088 621.555C728.11 631.146 716.873 623.167 702.627 626.391C710.143 622.999 718.174 620.747 726.427 619.717C739.721 618.202 765 610.029 769.675 578.708Z" fill="black"/>
<path d="M701.25 627.068C703.74 624.912 706.546 623.11 709.58 621.716C710.039 621.507 710.498 621.345 710.957 621.152C711.416 620.958 711.416 620.636 711.654 620.394C712.278 619.77 712.936 619.179 713.626 618.621C714.941 617.538 716.358 616.572 717.859 615.736C721.259 613.801 725.135 612.431 728.688 610.642C728.79 610.642 728.875 610.738 728.773 610.787C727.073 611.657 725.373 612.608 723.673 613.559C721.973 614.51 720.273 615.349 718.692 616.332C717.245 617.232 715.86 618.217 714.544 619.282C714.187 619.588 713.83 619.927 713.473 620.265C715.793 619.524 718.161 618.926 720.562 618.476C724.404 617.751 728.28 617.219 732.105 616.445C733.989 616.069 735.851 615.595 737.681 615.026C739.381 613.704 741.081 612.383 742.781 610.932C744.777 609.204 746.593 607.299 748.204 605.241C748.204 605.145 748.425 605.241 748.357 605.241C745.823 608.512 742.94 611.526 739.755 614.236C740.673 613.914 741.557 613.576 742.441 613.189C749.644 610.124 755.824 605.245 760.308 599.084C760.308 599.003 760.529 599.084 760.461 599.18C756.658 604.468 751.737 608.947 746.011 612.334C743.144 614.032 740.081 615.411 736.882 616.445C733.159 617.527 729.366 618.378 725.526 618.992C721.762 619.574 718.047 620.409 714.408 621.49C711.063 622.568 707.919 624.14 705.092 626.149C699.749 630.076 695.447 635.132 692.529 640.915C688.774 648.589 686.434 656.816 685.61 665.24C685.61 665.595 684.981 665.595 684.998 665.24C685.933 651.248 689.877 636.74 701.25 627.068Z" fill="#263238"/>
<path d="M725.577 616.139C726.681 614.591 728.162 613.319 729.895 612.431C731.871 611.444 733.608 610.077 734.995 608.417C734.995 608.32 735.216 608.417 735.148 608.498C733.888 610.027 732.351 611.332 730.609 612.35C728.706 613.309 727.028 614.626 725.679 616.219C725.662 616.3 725.526 616.219 725.577 616.139Z" fill="#263238"/>
<path d="M714.459 651.538L713.507 669.818L710.583 725.69H666.587L663.663 669.818L662.711 651.538H714.459Z" fill="#37474F"/>
<path d="M714.459 651.538L713.507 669.818H663.663L662.711 651.538H714.459Z" fill="#263238"/>
<path d="M717.536 643.897H659.617V661.339H717.536V643.897Z" fill="#37474F"/>
<path d="M204.799 293.545C218.399 302.927 252.892 324.076 267.699 324.173C284.835 324.173 332.928 301.734 341.666 288.29C345.831 281.842 308.669 268.946 300.033 271.88C287.674 275.991 272.306 285.775 264.333 286.501C260.202 286.888 229.636 277.038 208.624 274.814C190.536 272.863 188.938 282.616 204.799 293.545Z" fill="#D3766A"/>
<path d="M302.396 316.516L282.897 277.828C282.897 277.828 268.073 283.712 265.37 283.712C257.635 283.712 224.145 277.748 210.477 274.491C196.809 271.235 184.79 278.844 201.484 292.836C218.178 306.828 263.653 326.269 269.569 326.769C275.485 327.268 302.396 316.516 302.396 316.516Z" fill="#2480FF"/>
<path d="M269.331 319.386C268.19 319.775 267.113 320.318 266.135 320.998C267.341 320.893 268.526 320.627 269.654 320.208C270.795 319.818 271.872 319.276 272.85 318.596C271.643 318.698 270.458 318.964 269.331 319.386ZM234.736 300.203C233.595 300.592 232.518 301.135 231.54 301.815C233.994 301.6 236.342 300.765 238.34 299.397C237.104 299.499 235.89 299.77 234.736 300.203ZM267.75 297.785C266.609 298.174 265.532 298.717 264.554 299.397C265.762 299.289 266.947 299.017 268.073 298.591C269.218 298.209 270.295 297.665 271.269 296.979C270.062 297.088 268.877 297.36 267.75 297.785ZM254.49 309.069C254.072 307.99 253.5 306.97 252.79 306.038C253.016 308.365 253.897 310.592 255.34 312.486C255.226 311.336 254.94 310.207 254.49 309.133V309.069ZM284.172 288.983C283.762 287.901 283.19 286.88 282.472 285.953C282.582 287.097 282.862 288.22 283.305 289.29C283.708 290.375 284.282 291.396 285.005 292.32C284.89 291.198 284.61 290.096 284.172 289.048V288.983ZM225.199 285.002C224.788 283.919 224.216 282.899 223.499 281.971C223.629 283.124 223.933 284.253 224.4 285.324C224.81 286.407 225.382 287.427 226.1 288.355C225.973 287.222 225.67 286.114 225.199 285.066V285.002ZM283.9 309.085C282.821 308.606 281.677 308.275 280.5 308.102C281.431 308.838 282.467 309.446 283.577 309.907C284.656 310.386 285.8 310.717 286.977 310.89C286.046 310.154 285.01 309.546 283.9 309.085ZM213.537 300.219C212.56 299.792 211.533 299.478 210.477 299.284C211.429 299.896 212.415 300.509 213.418 301.122C214.431 301.566 215.508 301.865 216.614 302.008C215.69 301.284 214.666 300.682 213.571 300.219H213.537ZM250.835 288.935C250.33 289.958 249.981 291.043 249.798 292.159C250.574 291.276 251.215 290.294 251.702 289.241C252.199 288.216 252.548 287.131 252.739 286.017C251.968 286.927 251.338 287.936 250.869 289.015L250.835 288.935ZM201.535 285.824C201.03 286.847 200.681 287.932 200.498 289.048C201.274 288.165 201.915 287.183 202.402 286.13C202.899 285.105 203.248 284.02 203.439 282.906C202.695 283.822 202.089 284.831 201.637 285.904L201.535 285.824Z" fill="white"/>
<path d="M292.502 318.821C289.952 312.712 287.011 306.78 284.138 300.799C281.265 294.819 278.392 288.87 275.196 283.067C275.177 283.047 275.152 283.032 275.124 283.026C275.096 283.02 275.066 283.023 275.04 283.033C275.013 283.044 274.991 283.063 274.976 283.086C274.962 283.109 274.955 283.137 274.958 283.164C277.338 289.338 280.058 295.351 282.965 301.331C285.872 307.312 288.694 313.292 292.043 319.063C292.077 319.121 292.133 319.163 292.2 319.182C292.267 319.2 292.339 319.192 292.4 319.16C292.461 319.128 292.506 319.074 292.525 319.011C292.544 318.947 292.536 318.879 292.502 318.821Z" fill="#263238"/>
<path d="M274.754 326.027C273.099 326.501 271.382 326.751 269.654 326.769C263.721 326.269 218.246 306.844 201.552 292.836C186.626 280.311 194.752 272.912 206.346 273.83L274.754 326.027Z" fill="#263238"/>
<path d="M411.372 260.496L195.517 291.158L216.931 426.698L432.785 396.035L411.372 260.496Z" fill="#2480FF"/>
<path opacity="0.2" d="M411.372 260.496L195.517 291.158L216.931 426.698L432.785 396.035L411.372 260.496Z" fill="black"/>
<path d="M338.657 340.132C339.386 344.729 338.661 349.428 336.574 353.635C334.487 357.841 331.131 361.366 326.93 363.764C322.73 366.162 317.874 367.324 312.977 367.105C308.08 366.885 303.361 365.294 299.418 362.531C295.475 359.769 292.484 355.959 290.824 351.585C289.165 347.21 288.91 342.468 290.093 337.956C291.276 333.445 293.844 329.367 297.471 326.239C301.099 323.112 305.623 321.074 310.471 320.385C313.689 319.925 316.972 320.071 320.13 320.815C323.289 321.559 326.262 322.886 328.88 324.72C331.497 326.553 333.708 328.859 335.386 331.503C337.064 334.148 338.175 337.08 338.657 340.132Z" fill="#2480FF"/>
<path d="M305.371 354.882L302.26 335.232L329.715 341.373L305.371 354.882Z" fill="white"/>
<path d="M431.097 385.443L215.243 416.106L216.915 426.691L432.769 396.028L431.097 385.443Z" fill="#EBEBEB"/>
<path d="M410.623 392.155L228.932 417.965L229.428 421.105L411.119 395.295L410.623 392.155Z" fill="#C7C7C7"/>
<path d="M224.579 416.77L217.518 417.773L218.576 424.468L225.637 423.465L224.579 416.77Z" fill="#C7C7C7"/>
<path d="M220.656 418.558L219.328 418.746L220.008 423.051L221.336 422.862L220.656 418.558Z" fill="#A6A6A6"/>
<path d="M223.127 418.174L221.799 418.363L222.479 422.667L223.807 422.478L223.127 418.174Z" fill="#A6A6A6"/>
<path d="M420.273 388.97L413.211 389.974L414.269 396.669L421.33 395.666L420.273 388.97Z" fill="#C7C7C7"/>
<path d="M416.073 392.141L414.694 392.337L414.951 393.963L416.33 393.767L416.073 392.141Z" fill="#A6A6A6"/>
<path d="M418.03 394.601L415.769 393.86L415.514 392.232L417.435 390.894L418.03 394.601Z" fill="#A6A6A6"/>
<path d="M418.557 391.361L418.829 391.023C419.234 391.302 419.532 391.698 419.679 392.151C419.778 392.481 419.798 392.828 419.736 393.165C419.674 393.503 419.533 393.823 419.322 394.102L418.948 393.844C419.098 393.658 419.206 393.444 419.264 393.217C419.323 392.989 419.331 392.753 419.288 392.522C419.255 392.292 419.173 392.07 419.047 391.871C418.922 391.671 418.755 391.498 418.557 391.361Z" fill="#A6A6A6"/>
<path d="M418.591 393.586L418.2 393.328C418.354 393.135 418.421 392.891 418.387 392.651C418.342 392.412 418.202 392.199 417.996 392.055L418.268 391.716C418.419 391.819 418.547 391.948 418.645 392.098C418.743 392.247 418.809 392.414 418.839 392.587C418.869 392.761 418.862 392.939 418.82 393.11C418.777 393.281 418.7 393.443 418.591 393.586Z" fill="#A6A6A6"/>
<path d="M428.697 387.769L421.636 388.772L422.694 395.468L429.755 394.465L428.697 387.769Z" fill="#C7C7C7"/>
<path d="M425.83 389.269L422.921 389.682L423.357 392.44L426.266 392.027L425.83 389.269Z" fill="#A6A6A6"/>
<path d="M428.068 390.92L425.16 391.334L425.596 394.092L428.504 393.678L428.068 390.92Z" fill="white"/>
<path d="M263.211 414.703C263.291 415.248 263.507 415.768 263.84 416.218L229.415 421.054L228.922 417.83L263.347 412.994C263.163 413.546 263.117 414.131 263.211 414.703Z" fill="#A6A6A6"/>
<path d="M270.776 413.623C270.851 414.095 270.826 414.577 270.704 415.04C270.582 415.503 270.365 415.939 270.065 416.322C269.765 416.706 269.388 417.029 268.955 417.274C268.523 417.519 268.044 417.681 267.546 417.75C266.839 417.852 266.116 417.763 265.46 417.492C264.804 417.221 264.242 416.779 263.84 416.218C263.507 415.768 263.291 415.248 263.211 414.703C263.132 414.163 263.179 413.613 263.347 413.091C263.559 412.439 263.961 411.858 264.506 411.414C265.052 410.97 265.719 410.681 266.431 410.582C267.142 410.482 267.869 410.576 268.526 410.852C269.184 411.127 269.746 411.574 270.147 412.14C270.468 412.585 270.683 413.091 270.776 413.623Z" fill="#A6A6A6"/>
<path d="M145.333 677.508C139.349 674.848 131.427 673.864 125.477 676.927C125.239 677.04 125.477 677.362 125.647 677.346C132.145 676.994 138.664 677.297 145.095 678.249C145.146 678.264 145.2 678.269 145.254 678.264C145.307 678.259 145.359 678.244 145.406 678.22C145.454 678.196 145.496 678.164 145.53 678.124C145.564 678.085 145.589 678.04 145.605 677.991C145.621 677.942 145.626 677.891 145.621 677.841C145.616 677.79 145.6 677.741 145.575 677.696C145.549 677.651 145.515 677.611 145.474 677.579C145.432 677.547 145.384 677.522 145.333 677.508Z" fill="#263238"/>
<path d="M149.141 681.215C143.174 678.555 135.252 677.572 129.285 680.635C129.064 680.748 129.285 681.054 129.455 681.054C135.959 680.693 142.484 680.996 148.92 681.957C149.02 681.974 149.123 681.956 149.21 681.905C149.296 681.854 149.36 681.774 149.387 681.681C149.415 681.589 149.405 681.489 149.36 681.403C149.314 681.317 149.236 681.25 149.141 681.215Z" fill="#263238"/>
<path d="M153 684.923C147.033 682.263 139.111 681.28 133.144 684.342C132.923 684.455 133.144 684.762 133.314 684.762C139.818 684.393 146.344 684.696 152.779 685.664C152.879 685.682 152.982 685.664 153.069 685.613C153.155 685.562 153.219 685.482 153.246 685.389C153.274 685.296 153.264 685.197 153.219 685.111C153.173 685.024 153.095 684.957 153 684.923Z" fill="#263238"/>
<path d="M156.791 688.614C150.824 685.97 142.885 684.987 136.935 688.05C136.697 688.163 136.935 688.469 137.105 688.453C143.604 688.098 150.124 688.406 156.553 689.372C156.651 689.381 156.749 689.357 156.83 689.305C156.912 689.252 156.972 689.175 157 689.086C157.028 688.996 157.023 688.9 156.984 688.814C156.946 688.728 156.878 688.658 156.791 688.614Z" fill="#263238"/>
<path d="M83.861 654.827C82.926 658.405 82.042 661.936 81.209 665.353C80.682 667.497 80.189 669.576 79.713 671.591C76.653 684.487 74.613 694.562 75.667 695.546C78.659 698.592 172.788 722.095 176.358 721.886C179.928 721.676 179.52 711.956 176.63 708.297C174.93 706.056 162.435 696.207 152.949 688.84C146.846 684.117 141.967 680.393 141.967 680.393L145.146 669.979L159.103 622.458L96.9 607.063C96.9 607.063 89.794 631.549 83.861 654.827Z" fill="#D3766A"/>
<path d="M177.072 722.176C174.726 722.321 134.351 712.649 105.145 704.912C98.345 703.122 92.225 701.43 87.278 700.076C80.478 698.093 75.905 696.61 75.276 695.965C73.882 694.546 78.285 675.154 83.402 654.794L145.333 669.883L142.154 680.264C142.154 680.264 174.352 704.686 177.293 708.393C180.234 712.101 180.676 721.918 177.072 722.176Z" fill="#2480FF"/>
<path d="M176.698 718.227C160.837 713.923 96.492 697.996 80.495 694.885C80.359 694.885 80.342 694.885 80.495 694.965C96.101 699.56 160.582 715.003 176.664 718.468C176.97 718.533 177.021 718.307 176.698 718.227Z" fill="#263238"/>
<path d="M154.173 667.368C154.87 667.046 179.129 579.063 187.612 548.193C199.852 503.669 211.701 431.081 215.271 416.009C222.604 398.592 227.585 380.367 230.095 361.765H152.949C152.949 361.765 132.719 398.454 143.157 424.391C144.109 426.761 129.676 518.435 122.213 533.282C115.77 546.178 80.971 648.669 80.971 648.669L154.173 667.368Z" fill="#37474F"/>
<path d="M153.476 651.425C151.623 650.7 149.617 650.297 147.696 649.813C145.775 649.33 143.633 648.669 141.593 648.201C137.496 647.154 133.382 646.154 129.285 645.155C121.091 643.14 112.846 641.221 104.618 639.319C102.374 638.787 100.113 638.288 97.818 637.788C95.5961 637.175 93.3201 636.754 91.018 636.53C90.9864 636.53 90.9562 636.542 90.9338 636.564C90.9115 636.585 90.899 636.613 90.899 636.643C90.899 636.673 90.9115 636.702 90.9338 636.723C90.9562 636.744 90.9864 636.756 91.018 636.756C92.8678 637.494 94.7782 638.087 96.73 638.529L102.85 640.141C106.879 641.157 110.908 642.205 114.954 643.204C123.08 645.203 131.206 647.25 139.383 649.136C141.695 649.668 144.007 650.216 146.353 650.748C148.699 651.28 150.994 651.877 153.34 652.135C153.578 651.973 153.816 651.554 153.476 651.425Z" fill="#263238"/>
<path d="M195.075 411.511C193.579 419.136 192.355 426.793 191.029 434.434C190.349 438.335 189.448 442.188 188.768 446.089C188.088 449.99 187.442 453.73 186.796 457.566C184.189 472.945 181.6 488.334 179.027 503.734C177.735 511.375 176.437 519.016 175.134 526.657C173.937 534.181 172.314 541.64 170.272 548.999C168.147 556.35 165.648 563.604 163.285 570.89C160.922 578.176 158.44 585.817 156.026 593.297C151.215 608.143 146.234 622.974 141.916 637.965C141.389 639.819 140.845 641.689 140.216 643.543C140.209 643.585 140.218 643.629 140.243 643.666C140.268 643.702 140.305 643.729 140.349 643.741C140.393 643.753 140.44 643.749 140.481 643.73C140.523 643.712 140.555 643.679 140.573 643.639C145.894 628.922 150.773 614.075 155.771 599.245C160.769 584.414 165.682 569.729 170.323 554.883C172.61 547.661 174.427 540.312 175.763 532.879C177.14 525.222 178.347 517.549 179.639 509.892C182.28 494.513 184.898 479.124 187.493 463.724C188.768 456.164 190.179 448.587 191.165 440.995C192.185 433.112 193.613 425.294 194.854 417.444C195.16 415.525 195.449 413.607 195.721 411.673C195.789 411.27 195.16 411.06 195.075 411.511Z" fill="#263238"/>
<path d="M261.103 682.763C254.626 681.618 246.687 682.553 241.74 686.938C241.553 687.115 241.74 687.373 242.012 687.308C248.207 685.391 254.602 684.111 261.086 683.488C261.165 683.462 261.233 683.414 261.282 683.35C261.332 683.286 261.359 683.21 261.361 683.131C261.363 683.052 261.339 682.974 261.293 682.908C261.247 682.843 261.18 682.792 261.103 682.763Z" fill="#263238"/>
<path d="M265.795 685.439C259.301 684.294 251.379 685.229 246.415 689.614C246.228 689.791 246.415 690.033 246.704 689.984C252.896 688.084 259.285 686.819 265.761 686.212C265.815 686.214 265.868 686.207 265.918 686.189C265.969 686.172 266.015 686.145 266.054 686.11C266.094 686.076 266.126 686.034 266.148 685.988C266.171 685.942 266.184 685.892 266.186 685.842C266.188 685.791 266.18 685.74 266.161 685.692C266.143 685.645 266.115 685.601 266.079 685.563C266.042 685.526 265.998 685.496 265.95 685.474C265.901 685.453 265.849 685.441 265.795 685.439Z" fill="#263238"/>
<path d="M270.47 688.098C263.993 686.954 256.054 687.905 251.107 692.29C250.903 692.451 251.107 692.709 251.379 692.644C257.577 690.749 263.972 689.49 270.453 688.888C270.55 688.872 270.637 688.824 270.701 688.753C270.764 688.682 270.8 688.593 270.802 688.5C270.804 688.407 270.772 688.316 270.712 688.243C270.651 688.17 270.566 688.119 270.47 688.098Z" fill="#263238"/>
<path d="M275.145 690.774C268.668 689.63 260.729 690.581 255.782 694.965C255.595 695.127 255.782 695.385 256.054 695.32C262.254 693.429 268.648 692.164 275.128 691.548C275.182 691.549 275.235 691.54 275.285 691.522C275.335 691.503 275.38 691.476 275.419 691.44C275.458 691.405 275.489 691.363 275.51 691.317C275.532 691.27 275.543 691.22 275.545 691.169C275.546 691.118 275.536 691.068 275.517 691.021C275.497 690.973 275.468 690.93 275.431 690.893C275.394 690.857 275.35 690.827 275.3 690.807C275.251 690.786 275.199 690.775 275.145 690.774Z" fill="#263238"/>
<path d="M195.585 675.428C195.585 679.119 195.721 682.746 195.823 686.261C195.823 688.453 195.959 690.581 196.044 692.709C196.52 705.975 197.268 716.147 198.475 716.889C202.181 719.113 299.523 719.387 302.923 718.323C306.323 717.259 303.348 707.974 299.523 705.105C297.228 703.38 282.523 696.803 271.439 691.935L258.587 686.373L258.893 675.541L259.777 626.23H195.5C195.5 626.23 195.16 651.554 195.585 675.428Z" fill="#D3766A"/>
<path d="M303.688 718.404C301.461 719.097 259.828 719.371 229.5 718.871C222.479 718.742 216.07 718.581 210.8 718.388C203.677 718.098 198.9 717.743 198.101 717.276C196.401 716.228 195.5 696.4 195.041 675.493L258.995 675.299L258.689 686.228C258.689 686.228 296.344 702.187 300.169 705.073C303.994 707.958 307.105 717.34 303.688 718.404Z" fill="#2480FF"/>
<path d="M302.277 714.68C285.787 714.293 219.3 714.245 202.98 715.051C202.844 715.051 202.844 715.148 202.98 715.148C219.3 715.857 285.804 715.406 302.277 714.922C302.6 714.922 302.6 714.68 302.277 714.68Z" fill="#263238"/>
<path d="M184.11 427.083C184.11 427.083 195.109 529.349 195.279 531.767C195.279 532.702 190.553 668.593 190.553 668.593H263.262C263.262 668.593 260.661 540.568 259.573 526.125C259.437 524.513 254.745 420.49 233.58 361.701H152.847C152.847 361.701 153.544 396.278 170.119 421.345C174.892 423.008 179.563 424.924 184.11 427.083Z" fill="#37474F"/>
<path d="M258.672 655.681C256.683 655.407 254.626 655.471 252.62 655.375C250.614 655.278 248.387 655.181 246.262 655.149C242.029 655.052 237.762 655.02 233.563 654.972C225.063 654.891 216.563 654.891 208.063 654.972H201.127C198.792 654.883 196.453 654.996 194.14 655.31C194.108 655.31 194.078 655.322 194.056 655.343C194.034 655.364 194.021 655.393 194.021 655.423C194.021 655.453 194.034 655.482 194.056 655.503C194.078 655.524 194.108 655.536 194.14 655.536C196.123 655.844 198.131 655.985 200.141 655.955C202.266 656.036 204.374 656.084 206.499 656.132C210.664 656.213 214.846 656.31 219.011 656.358C227.426 656.455 235.824 656.584 244.239 656.568C246.619 656.568 248.999 656.568 251.379 656.471C253.759 656.374 256.173 656.471 258.536 656.229C258.893 656.197 259.029 655.729 258.672 655.681Z" fill="#263238"/>
<path d="M238.306 375.886C238.306 375.757 238.051 375.789 238.068 375.886C238.374 380.255 239.139 385.01 237.099 389.105C235.297 392.748 231.863 394.779 228.718 397.165C228.616 397.245 228.718 397.39 228.837 397.358C233.036 396.149 237.218 393.941 238.867 389.878C240.72 385.397 239.7 380.432 238.306 375.886Z" fill="#263238"/>
<path d="M203.286 424.843C199.922 424.741 196.554 424.848 193.205 425.165C189.918 425.332 186.623 425.273 183.345 424.988C181.698 424.832 180.063 424.579 178.449 424.23C176.749 423.859 175.185 423.263 173.536 422.828C172.033 422.518 170.471 422.573 168.997 422.989C167.252 423.361 165.487 423.646 163.71 423.843C159.664 424.412 155.559 424.515 151.487 424.149C151.334 424.149 151.266 424.343 151.487 424.375C154.907 425.065 158.394 425.411 161.891 425.407C163.679 425.369 165.462 425.218 167.229 424.955C168.885 424.5 170.605 424.288 172.329 424.327C173.986 424.776 175.615 425.314 177.208 425.939C178.838 426.366 180.496 426.689 182.172 426.906C185.553 427.322 188.97 427.419 192.372 427.196C196.18 427.114 199.962 426.572 203.626 425.584C203.73 425.541 203.811 425.461 203.853 425.362C203.894 425.262 203.892 425.15 203.847 425.052C203.802 424.954 203.717 424.877 203.612 424.837C203.507 424.798 203.39 424.8 203.286 424.843Z" fill="#263238"/>
<path d="M195.5 526.125C195.467 526.113 195.431 526.113 195.398 526.125C195.39 526.14 195.387 526.156 195.387 526.173C195.387 526.19 195.39 526.206 195.398 526.221V526.463C195.413 526.472 195.431 526.476 195.449 526.476C195.467 526.476 195.484 526.472 195.5 526.463V526.221C195.511 526.19 195.511 526.156 195.5 526.125Z" fill="#263238"/>
<path d="M193.545 508.522C192.899 501.902 192.213 495.276 191.488 488.646C190.009 475.395 188.632 462.128 187.187 448.878C186.371 441.366 185.776 433.773 184.484 426.31C184.484 426.267 184.466 426.226 184.434 426.196C184.402 426.165 184.359 426.148 184.314 426.148C184.269 426.148 184.226 426.165 184.194 426.196C184.162 426.226 184.144 426.267 184.144 426.31C184.263 432.951 185.011 439.592 185.606 446.218C186.201 452.843 186.813 459.468 187.476 466.11C188.785 479.36 190.026 492.627 191.675 505.862C192.14 509.612 192.633 513.374 193.154 517.146C193.664 520.902 194.361 524.658 194.854 528.43C194.854 528.575 195.126 528.575 195.109 528.43C194.514 521.788 194.174 515.147 193.545 508.522Z" fill="#263238"/>
<path d="M192.1 273.927C192.576 275.378 200.719 284.454 207.808 283.599C210.103 283.325 209.151 271.332 209.151 271.332L209.304 270.429L211.293 257.807L195.211 249.489L192.899 248.393C192.899 248.393 192.593 251.875 192.253 256.227V256.84C192.253 257.098 192.253 257.324 192.253 257.549C192.253 258.194 192.134 258.871 192.1 259.516C192.066 260.161 192.1 260.515 192.1 261.047C192.1 261.579 192.1 262.095 192.1 262.659C191.826 266.411 191.826 270.176 192.1 273.927Z" fill="#D3766A"/>
<path d="M192.1 256.308C193.679 259.702 196.017 262.73 198.953 265.182C201.888 267.634 205.35 269.452 209.1 270.51L211.089 257.888L195.007 249.57L192.695 248.474C192.695 248.474 192.508 251.939 192.1 256.308Z" fill="#263238"/>
<path d="M229.806 236.803C234.787 258.694 221.629 264.207 216.546 264.997C211.99 265.722 196.52 268.511 189.176 247.265C181.832 226.019 190.995 216.862 201.212 214.235C211.429 211.607 224.825 214.912 229.806 236.803Z" fill="#D3766A"/>
<path d="M227.596 232.305C227.035 232.305 226.508 232.305 225.896 232.209C225.298 232.251 224.702 232.11 224.196 231.806C224.065 231.681 223.981 231.518 223.956 231.344C223.932 231.169 223.968 230.992 224.06 230.838C224.289 230.563 224.59 230.35 224.933 230.22C225.276 230.089 225.649 230.047 226.015 230.097C226.775 230.103 227.507 230.372 228.072 230.855C228.19 230.965 228.274 231.103 228.314 231.256C228.355 231.408 228.35 231.568 228.301 231.718C228.252 231.867 228.16 232.002 228.035 232.105C227.911 232.209 227.759 232.278 227.596 232.305Z" fill="#263238"/>
<path d="M212.619 235.142C213.14 234.994 213.65 234.816 214.149 234.61C214.712 234.493 215.219 234.204 215.594 233.788C215.686 233.635 215.722 233.458 215.698 233.283C215.673 233.108 215.589 232.946 215.458 232.821C215.154 232.62 214.799 232.497 214.429 232.466C214.059 232.435 213.687 232.496 213.35 232.644C212.639 232.859 212.035 233.311 211.65 233.917C211.574 234.059 211.542 234.219 211.557 234.378C211.571 234.536 211.633 234.688 211.733 234.815C211.834 234.943 211.971 235.041 212.127 235.099C212.283 235.156 212.454 235.172 212.619 235.142Z" fill="#263238"/>
<path d="M216.886 240.188C216.886 240.188 216.767 240.285 216.784 240.349C217.107 241.848 217.192 243.573 215.849 244.331C215.849 244.331 215.849 244.428 215.849 244.411C217.6 243.831 217.43 241.494 216.886 240.188Z" fill="#263238"/>
<path d="M215.186 238.786C212.602 239.011 213.265 243.879 215.662 243.622C218.059 243.364 217.362 238.576 215.186 238.786Z" fill="#263238"/>
<path d="M214.2 239.156C213.792 239.495 213.418 240.043 212.874 240.156C212.33 240.269 211.718 239.833 211.174 239.398C211.293 240.333 211.786 241.252 212.874 241.252C213.962 241.252 214.438 240.349 214.574 239.382C214.574 239.269 214.387 239.027 214.2 239.156Z" fill="#263238"/>
<path d="M225.352 238.254C225.352 238.254 225.471 238.254 225.488 238.366C225.624 239.882 226.049 241.59 227.562 241.945C225.76 241.993 225.216 239.704 225.352 238.254Z" fill="#263238"/>
<path d="M226.576 236.513C229.109 236.029 229.976 240.897 227.579 241.349C225.182 241.8 224.4 236.964 226.576 236.513Z" fill="#263238"/>
<path d="M227.698 236.658C228.14 236.867 228.616 237.27 229.109 237.222C229.602 237.174 230.01 236.593 230.282 236.029C230.469 236.964 230.282 237.98 229.398 238.302C228.514 238.624 227.8 237.883 227.409 236.996C227.409 236.867 227.511 236.577 227.698 236.658Z" fill="#263238"/>
<path d="M224.281 245.475C224.281 245.475 224.944 247.684 225.097 248.699C225.097 248.796 224.859 248.877 224.468 248.957C223.529 249.251 222.523 249.294 221.56 249.081C220.597 248.868 219.715 248.406 219.011 247.748C218.909 247.668 219.011 247.539 219.147 247.587C220.723 248.336 222.515 248.573 224.247 248.264C224.247 247.958 222.989 244.508 223.159 244.476C224.043 244.431 224.93 244.502 225.794 244.685C224.553 240.043 222.547 235.626 221.391 230.983C221.391 230.806 221.595 230.726 221.663 230.871C223.978 235.521 225.789 240.382 227.069 245.379C227.188 246.088 224.757 245.588 224.281 245.475Z" fill="#263238"/>
<path d="M224.264 248.248C223.824 249.235 223.121 250.096 222.224 250.747C221.729 251.086 221.135 251.272 220.524 251.279C219.181 251.279 218.824 250.182 218.824 249.183C218.806 248.641 218.863 248.099 218.994 247.571C220.629 248.325 222.476 248.563 224.264 248.248Z" fill="#263238"/>
<path d="M222.224 250.698C221.729 251.038 221.135 251.224 220.524 251.23C219.181 251.23 218.824 250.134 218.824 249.135C219.493 249 220.191 249.08 220.807 249.363C221.423 249.646 221.921 250.116 222.224 250.698Z" fill="#FF98B9"/>
<path d="M235.45 341.277L242.556 377.337C242.556 377.337 158.338 378.449 138.567 377.127C138.567 377.127 159.239 300.767 180.506 278.876C191.148 267.914 203.626 268.737 211.582 276.394C213.605 278.328 237.626 308.44 240.159 319.918C242.369 330.105 235.45 341.277 235.45 341.277Z" fill="#2480FF"/>
<path d="M196.826 285.904C196.321 286.927 195.972 288.013 195.789 289.128C196.565 288.246 197.206 287.263 197.693 286.211C198.19 285.185 198.539 284.101 198.73 282.987C197.957 283.872 197.316 284.854 196.826 285.904ZM184.756 328.509C184.251 329.532 183.902 330.618 183.719 331.733C184.496 330.854 185.132 329.871 185.606 328.816C186.109 327.791 186.463 326.706 186.66 325.592C185.878 326.47 185.236 327.454 184.756 328.509ZM236.742 347.853C236.555 348.176 236.385 348.482 236.232 348.805C235.729 349.829 235.375 350.914 235.178 352.029C235.934 351.185 236.553 350.24 237.014 349.224L236.742 347.853ZM173.298 373.758C172.791 374.78 172.442 375.866 172.261 376.982C173.035 376.095 173.67 375.107 174.148 374.048C174.66 373.027 175.015 371.941 175.202 370.824C174.427 371.696 173.786 372.668 173.298 373.71V373.758ZM222.513 318.128C222.006 319.15 221.657 320.236 221.476 321.352C222.25 320.465 222.885 319.477 223.363 318.418C223.875 317.397 224.23 316.311 224.417 315.194C223.642 316.066 223.001 317.038 222.513 318.08V318.128ZM198.305 367.778C197.8 368.802 197.445 369.886 197.251 371.002C198.03 370.115 198.671 369.127 199.155 368.068C199.66 367.044 200.015 365.959 200.209 364.844C199.434 365.716 198.793 366.687 198.305 367.729V367.778ZM149.43 346.193C148.925 347.216 148.576 348.301 148.393 349.417C149.163 348.559 149.803 347.604 150.297 346.58C150.794 345.555 151.143 344.47 151.334 343.356C150.568 344.216 149.927 345.171 149.43 346.193ZM163.37 310.729C162.865 311.752 162.516 312.837 162.333 313.953C163.853 312.149 164.865 310.008 165.274 307.731C164.491 308.633 163.85 309.637 163.37 310.713V310.729ZM208.76 300.235C207.682 299.751 206.537 299.415 205.36 299.236C207.252 300.694 209.515 301.656 211.922 302.024C210.962 301.285 209.898 300.678 208.76 300.219V300.235ZM218.96 337.746C217.882 337.266 216.737 336.935 215.56 336.763C216.499 337.496 217.54 338.103 218.654 338.568C219.732 339.049 220.877 339.38 222.054 339.552C221.1 338.809 220.041 338.196 218.909 337.73L218.96 337.746ZM218.688 377.015C218.937 377.222 219.198 377.416 219.47 377.595H221C220.241 377.306 219.447 377.105 218.637 376.998L218.688 377.015ZM173.247 344.597C172.17 344.111 171.025 343.775 169.847 343.598C170.782 344.336 171.824 344.944 172.941 345.403C174.021 345.882 175.165 346.218 176.341 346.403C175.391 345.654 174.332 345.041 173.196 344.581L173.247 344.597ZM238 325.866C237.586 324.785 237.014 323.765 236.3 322.835C236.541 325.134 237.421 327.331 238.85 329.203C238.735 328.058 238.448 326.934 238 325.866ZM237.099 369.148C236.688 368.066 236.116 367.045 235.399 366.117C235.509 367.261 235.789 368.385 236.232 369.454C236.642 370.537 237.215 371.557 237.932 372.485C237.824 371.341 237.543 370.217 237.099 369.148ZM184.977 305.958C184.573 304.872 184 303.851 183.277 302.927C183.393 304.072 183.679 305.195 184.127 306.264C184.537 307.347 185.109 308.367 185.827 309.294C185.722 308.148 185.435 307.023 184.977 305.958ZM201.11 344.646C200.7 343.563 200.127 342.543 199.41 341.615C199.52 342.759 199.8 343.883 200.243 344.952C200.653 346.034 201.226 347.055 201.943 347.982C201.83 346.855 201.55 345.747 201.11 344.694V344.646ZM158.304 360.766C157.89 359.685 157.318 358.665 156.604 357.735C156.845 360.034 157.725 362.231 159.154 364.102C159.031 362.985 158.745 361.889 158.304 360.846V360.766ZM187 273.669L186.269 274.121C186.601 274.801 187.011 275.444 187.493 276.039C187.426 275.234 187.26 274.438 187 273.669ZM174.046 290.724C172.905 291.113 171.828 291.656 170.85 292.336C173.273 292.1 175.588 291.267 177.565 289.918C176.381 290.034 175.219 290.305 174.114 290.724H174.046ZM218.331 358.138C217.187 358.521 216.109 359.064 215.135 359.75C216.342 359.64 217.527 359.369 218.654 358.944C219.798 358.561 220.876 358.018 221.85 357.332C220.666 357.448 219.504 357.719 218.399 358.138H218.331ZM160.531 329.509C159.39 329.898 158.313 330.441 157.335 331.121C158.541 331.017 159.726 330.751 160.854 330.331C161.995 329.942 163.072 329.399 164.05 328.719C162.861 328.826 161.693 329.092 160.582 329.509H160.531ZM183.056 358.138C181.912 358.521 180.834 359.064 179.86 359.75C181.067 359.64 182.252 359.369 183.379 358.944C184.523 358.561 185.601 358.018 186.575 357.332C185.385 357.444 184.217 357.716 183.107 358.138H183.056ZM144.806 372.05C143.672 372.442 142.601 372.985 141.627 373.662C144.079 373.439 146.425 372.605 148.427 371.244C147.203 371.35 146.001 371.621 144.857 372.05H144.806ZM201.875 318.515C200.734 318.904 199.657 319.447 198.679 320.127C199.886 320.017 201.071 319.746 202.198 319.321C203.34 318.933 204.416 318.39 205.394 317.709C204.203 317.816 203.034 318.087 201.926 318.515H201.875ZM229.602 300.299C228.556 300.71 227.572 301.252 226.678 301.911C227.842 301.807 228.986 301.552 230.078 301.154L229.602 300.299Z" fill="white"/>
<path d="M194.956 290.998C195.466 306.989 199.835 352.496 208.658 363.699C222.972 381.818 239.258 398.1 247.35 403.548C253.827 407.933 289.187 383.317 282.217 377.756C272.238 369.696 245.31 343.904 240.669 337.827C238.221 334.603 222.547 303.04 213.979 284.728C206.601 268.898 194.378 272.428 194.956 290.998Z" fill="#D3766A"/>
<path d="M310.114 420.732C309.271 421.749 308.124 422.502 306.823 422.893C305.523 423.284 304.128 423.295 302.821 422.924C302.675 425.122 301.725 427.203 300.135 428.808C297.194 431.5 291.448 428.308 291.448 428.308C290.795 430.557 289.445 432.567 287.572 434.079C284.478 436.401 278.205 433.95 278.205 433.95C276.398 435.707 273.984 436.789 271.405 436.997C264.605 437.303 258.519 429.082 254.66 423.891C250.801 418.701 244.97 400.55 243.491 397.197L275.519 372.372C275.519 372.372 295.919 379.707 306.34 398.793C309.4 404.354 313.14 416.686 310.114 420.732Z" fill="#D3766A"/>
<path d="M303.212 422.344C301.512 415.59 297.738 409.69 294.355 403.596C294.355 403.467 294.066 403.596 294.134 403.709C297.534 409.738 299.71 416.331 302.889 422.457C302.974 422.602 303.246 422.489 303.212 422.344Z" fill="#263238"/>
<path d="M291.822 427.889C291.267 426.391 290.513 424.967 289.578 423.65C288.677 422.215 287.742 420.78 286.807 419.362C284.903 416.541 282.914 413.736 280.857 411.012C280.772 410.883 280.551 411.012 280.636 411.124C282.54 413.951 284.376 416.809 286.144 419.7C287.028 421.151 287.844 422.618 288.762 424.069C289.477 425.502 290.361 426.854 291.397 428.099C291.436 428.132 291.484 428.154 291.536 428.16C291.588 428.167 291.64 428.158 291.687 428.135C291.733 428.112 291.771 428.076 291.795 428.032C291.819 427.988 291.829 427.938 291.822 427.889Z" fill="#263238"/>
<path d="M278.12 433.838C277.608 432.49 276.854 431.235 275.893 430.13C274.992 428.856 274.193 427.567 273.224 426.293C271.524 423.73 269.705 421.151 268.039 418.54C268.039 418.411 267.733 418.54 267.818 418.653C269.518 421.312 271.218 424.02 272.918 426.713C273.751 428.018 274.618 429.308 275.451 430.614C276.11 431.863 276.996 432.993 278.069 433.95C278.081 433.947 278.092 433.941 278.101 433.933C278.11 433.926 278.117 433.916 278.122 433.905C278.127 433.894 278.129 433.883 278.129 433.871C278.128 433.86 278.125 433.848 278.12 433.838Z" fill="#263238"/>
<path d="M226.185 387.67L260.1 354.721C260.1 354.721 243.1 340.116 239.071 333.765C235.042 327.413 220.184 297.253 215.067 284.808C209.95 272.364 196.469 267.592 194.089 288.548C191.709 309.504 201.331 355.978 204.289 360.846C207.247 365.714 226.185 387.67 226.185 387.67Z" fill="#2480FF"/>
<path d="M196.826 285.904C196.321 286.927 195.972 288.013 195.789 289.128C196.565 288.246 197.206 287.263 197.693 286.211C198.19 285.185 198.539 284.101 198.73 282.987C197.957 283.872 197.317 284.854 196.826 285.904ZM236.232 348.772C235.729 349.797 235.375 350.882 235.178 351.996C235.957 351.115 236.598 350.133 237.082 349.079C237.585 348.054 237.939 346.969 238.136 345.855C237.379 346.732 236.761 347.71 236.3 348.756L236.232 348.772ZM222.513 318.144C222.006 319.166 221.657 320.252 221.476 321.368C222.25 320.481 222.885 319.493 223.363 318.434C223.875 317.413 224.23 316.327 224.417 315.21C223.644 316.078 223.003 317.043 222.513 318.08V318.144ZM208.76 300.283C207.682 299.8 206.537 299.463 205.36 299.284C207.252 300.742 209.515 301.704 211.922 302.073C210.965 301.317 209.901 300.693 208.76 300.219V300.283ZM218.96 337.795C217.882 337.314 216.737 336.983 215.56 336.811C216.499 337.544 217.54 338.152 218.654 338.617C219.732 339.097 220.877 339.428 222.054 339.6C221.103 338.84 220.044 338.211 218.909 337.73L218.96 337.795ZM252.96 353.689C251.881 353.21 250.737 352.879 249.56 352.706C250.487 353.447 251.523 354.056 252.637 354.511C253.716 354.99 254.86 355.321 256.037 355.494C255.092 354.735 254.039 354.106 252.909 353.624L252.96 353.689ZM222.156 378.046C221.078 377.566 219.933 377.235 218.756 377.063C220.659 378.504 222.917 379.464 225.318 379.852C224.35 379.081 223.268 378.451 222.105 377.982L222.156 378.046ZM237.15 369.196C236.74 368.114 236.167 367.093 235.45 366.166C235.56 367.31 235.84 368.433 236.283 369.503C236.694 370.585 237.266 371.606 237.983 372.533C237.863 371.37 237.566 370.23 237.099 369.148L237.15 369.196ZM201.11 344.694C200.7 343.612 200.127 342.591 199.41 341.663C199.52 342.807 199.8 343.931 200.243 345C200.653 346.083 201.226 347.103 201.943 348.031C201.835 346.886 201.554 345.763 201.11 344.694ZM218.399 358.138C217.255 358.521 216.177 359.064 215.203 359.75C216.41 359.64 217.595 359.369 218.722 358.944C219.866 358.561 220.944 358.018 221.918 357.332C220.711 357.442 219.526 357.713 218.399 358.138ZM201.926 318.515C200.785 318.904 199.708 319.447 198.73 320.127C199.937 320.017 201.122 319.746 202.249 319.321C203.391 318.933 204.467 318.39 205.445 317.709C204.236 317.811 203.05 318.082 201.926 318.515Z" fill="white"/>
<path d="M217.073 377.063C214.421 372.968 211.31 369.1 208.352 365.199C205.401 361.568 203.166 357.461 201.756 353.076C200.447 348.579 199.631 343.92 198.781 339.326C197.931 334.732 197.081 329.767 196.333 324.979C195.381 319.466 194.531 313.921 193.936 308.343C193.936 308.214 193.698 308.214 193.715 308.343C194.089 313.582 194.514 318.821 195.075 324.044C194.565 322.303 194.055 320.562 193.494 318.837C193.48 318.799 193.451 318.767 193.413 318.749C193.375 318.731 193.331 318.728 193.29 318.741C193.249 318.754 193.216 318.781 193.197 318.817C193.178 318.854 193.174 318.896 193.188 318.934C193.834 321.223 194.565 323.496 195.296 325.769C195.755 329.783 196.282 333.829 196.996 337.795C197.846 342.631 198.696 347.37 199.92 352.077C201.071 356.523 203.14 360.709 206.006 364.393C209.389 368.841 213.015 373.119 216.869 377.208C216.971 377.321 217.158 377.208 217.073 377.063Z" fill="#263238"/>
<path d="M251.243 350.578C246.143 355.043 241.4 359.798 236.589 364.522C231.778 369.245 226.95 373.936 222.394 378.868C222.378 378.893 222.371 378.922 222.375 378.951C222.379 378.98 222.392 379.006 222.414 379.027C222.435 379.047 222.464 379.06 222.494 379.064C222.524 379.067 222.555 379.061 222.581 379.046C227.783 374.709 232.679 370.051 237.507 365.36C242.335 360.669 247.163 355.962 251.6 350.852C251.611 350.808 251.609 350.761 251.593 350.718C251.578 350.675 251.55 350.637 251.512 350.609C251.475 350.58 251.43 350.562 251.382 350.556C251.335 350.551 251.286 350.558 251.243 350.578Z" fill="#263238"/>
<path d="M237.099 329.396C236.521 328.123 235.909 326.865 235.297 325.608C233.937 322.867 232.611 320.127 231.217 317.419C230.52 316.049 229.823 314.679 229.143 313.292C228.65 311.019 228.191 308.746 227.443 306.506C227.443 306.409 227.239 306.506 227.256 306.506C227.545 308.376 228.021 310.213 228.48 312.051C226.644 308.392 224.791 304.749 222.666 301.234C222.666 301.138 222.394 301.234 222.445 301.331C224.621 306.876 227.426 312.212 229.993 317.612C231.285 320.288 232.628 322.948 233.954 325.672C234.617 326.994 235.28 328.332 235.977 329.638C236.674 330.944 237.677 332.394 238.493 333.813C238.493 333.926 238.799 333.813 238.731 333.7C238.136 332.298 237.728 330.799 237.099 329.396Z" fill="#263238"/>
<path d="M208.505 210.156C210.205 210.608 220.575 209.189 224.264 216.604C227.069 222.23 223.737 226.276 218.008 228.146C211.684 230.097 203.643 227.808 203.643 227.808C203.762 234.143 203.898 242.316 201.722 243.751C200.022 244.911 197.03 242.816 197.03 242.816C195.806 248.071 197.676 258.936 198.832 261.047C201.552 266.141 207.995 273.057 202.079 280.391C200.272 282.044 198.057 283.24 195.637 283.871C193.216 284.502 190.668 284.547 188.224 284.002C181.424 282.519 179.826 277.731 177.123 276.232C174.42 274.733 166.923 275.652 164.203 271.799C161.483 267.947 161.585 263.369 160.361 261.499C159.137 259.629 156.009 259.532 154.7 255.405C153.391 251.279 157.607 249.376 158.661 246.104C159.392 243.815 157.539 241.381 159.613 238.044C162.486 233.45 168.623 235.368 171.802 230.677C174.301 227.002 180.166 213.461 191.352 209.592C196.938 207.711 203.07 207.913 208.505 210.156Z" fill="#263238"/>
<path d="M182.087 216.185C179.84 218.881 177.789 221.72 175.95 224.681C174.93 226.099 173.978 227.55 172.873 228.872C172.342 229.528 171.731 230.123 171.054 230.645C170.91 230.773 170.743 230.877 170.561 230.951C170.39 231.048 170.208 231.124 170.017 231.177L168.674 231.499C166.786 231.85 164.919 232.297 163.081 232.837C161.194 233.358 159.536 234.444 158.355 235.932C157.8 236.695 157.477 237.587 157.42 238.512C157.411 239.434 157.596 240.349 157.964 241.204C158.779 242.783 159.187 244.523 159.154 246.281C159.435 244.525 159.223 242.729 158.542 241.075C158.259 240.276 158.143 239.433 158.202 238.592C158.305 237.803 158.635 237.056 159.154 236.432C160.298 235.146 161.818 234.209 163.523 233.74C165.341 233.245 167.185 232.841 169.048 232.531C169.507 232.418 169.983 232.305 170.459 232.16C170.969 232.006 171.442 231.76 171.853 231.435C172.581 230.851 173.232 230.185 173.791 229.452C174.882 228.061 175.882 226.608 176.783 225.1L179.401 220.586C180.195 219.066 181.092 217.596 182.087 216.185Z" fill="#263238"/>
<path d="M158.848 260.161C159.306 261.291 159.52 262.497 159.477 263.707C159.477 264.916 159.647 266.141 159.783 267.366C159.922 268.609 160.196 269.835 160.599 271.026C160.997 272.28 161.709 273.425 162.673 274.362C164.87 275.909 167.606 276.601 170.323 276.297C171.615 276.297 172.89 276.136 174.165 276.119C175.433 276.012 176.71 276.195 177.888 276.651C176.773 275.993 175.495 275.626 174.182 275.588C172.873 275.491 171.581 275.588 170.323 275.459C167.896 275.56 165.503 274.89 163.523 273.556C162.689 272.748 162.066 271.765 161.704 270.687C161.281 269.566 160.963 268.411 160.752 267.237C160.497 266.061 160.31 264.852 160.106 263.643C159.987 263.046 159.868 262.434 159.715 261.837C159.591 261.214 159.291 260.635 158.848 260.161Z" fill="#263238"/>
<path d="M201.875 226.486C204.861 228.204 208.248 229.195 211.735 229.371C212.59 229.428 213.447 229.428 214.302 229.371L215.594 229.259L216.869 229.049C217.736 228.936 218.569 228.662 219.419 228.485C220.269 228.308 221.119 227.953 221.952 227.727C221.193 228.174 220.41 228.583 219.606 228.952C218.785 229.3 217.938 229.591 217.073 229.823C215.316 230.296 213.491 230.497 211.667 230.419C209.845 230.341 208.05 229.965 206.363 229.307C204.68 228.667 203.152 227.707 201.875 226.486Z" fill="#263238"/>
<path d="M202.3 225.148C203.877 228.131 204.851 231.368 205.173 234.691C205.357 236.376 205.225 238.079 204.782 239.721C204.589 240.553 204.218 241.338 203.691 242.029C203.165 242.719 202.495 243.3 201.722 243.734C202.941 242.613 203.731 241.138 203.966 239.543C204.238 237.944 204.284 236.318 204.102 234.707C203.738 231.485 203.136 228.291 202.3 225.148Z" fill="#263238"/>
<path d="M197.914 244.46C197.914 244.46 192.117 237.931 188.955 239.962C185.793 241.993 190.655 251.746 194.65 252.778C195.156 252.942 195.692 253.008 196.226 252.972C196.76 252.935 197.281 252.797 197.757 252.565C198.233 252.334 198.655 252.013 198.998 251.623C199.34 251.233 199.596 250.781 199.75 250.295L197.914 244.46Z" fill="#D3766A"/>
<path d="M190.4 242.719C190.4 242.719 190.4 242.816 190.4 242.832C191.716 243.314 192.91 244.054 193.903 245.004C194.896 245.954 195.666 247.093 196.163 248.345C195.981 248.087 195.741 247.87 195.459 247.712C195.178 247.553 194.862 247.457 194.536 247.429C194.21 247.401 193.882 247.443 193.575 247.551C193.268 247.659 192.991 247.831 192.763 248.055C192.763 248.055 192.763 248.216 192.763 248.184C193.232 247.998 193.749 247.954 194.245 248.058C194.741 248.162 195.191 248.408 195.534 248.764C196.1 249.361 196.596 250.015 197.013 250.714C197.166 250.94 197.591 250.714 197.472 250.521C197.353 247.136 194.191 242.735 190.4 242.719Z" fill="#263238"/>
<path d="M273.326 278.054C279.769 273.008 286.654 262.546 292.451 260.435C293.859 259.866 295.423 259.742 296.911 260.081C298.399 260.421 299.732 261.206 300.713 262.321C300.713 262.321 302.175 255.953 307.768 254.857C310.658 254.293 314.126 258.162 314.126 258.162C314.126 258.162 315.537 253.116 320.569 252.423C324.581 251.891 327.471 255.841 327.471 255.841C327.471 255.841 331.211 251.585 335.478 252.278C344.165 253.68 352.682 285.679 341.564 293.594C336.464 297.285 334.764 289.354 334.764 289.354C334.764 289.354 334.203 301.299 327.301 303.12C320.399 304.942 318.92 294.545 318.92 294.545C318.92 294.545 318.274 306.103 310.913 307.312C303.246 308.585 303.654 297.93 303.654 297.93C303.654 297.93 300.458 306.264 294.593 305.99C284.903 305.49 292.196 285.034 288.558 278.36L274.754 281.036L273.326 278.054Z" fill="#D3766A"/>
<path d="M282.931 268.366C276.131 272.218 263.381 263.965 256.292 266.754C246.704 270.542 260.406 283.293 274.839 281.068L288.541 278.344L282.931 268.366Z" fill="#D3766A"/>
<path d="M328.1 256.405C328.094 256.395 328.091 256.385 328.09 256.374C328.088 256.363 328.089 256.352 328.092 256.342C328.096 256.331 328.101 256.321 328.108 256.313C328.115 256.304 328.124 256.297 328.134 256.292C328.144 256.287 328.155 256.283 328.167 256.282C328.178 256.281 328.189 256.282 328.201 256.285C328.212 256.288 328.222 256.293 328.231 256.299C328.24 256.306 328.247 256.315 328.253 256.324C333.991 266.583 336.309 278.253 334.9 289.789C334.9 290.144 334.186 290.224 334.169 289.789C333.862 278.441 331.817 267.195 328.1 256.405Z" fill="#263238"/>
<path d="M314.16 257.92C314.16 257.807 314.33 257.727 314.398 257.92C320.008 268.124 322.813 282.229 319.311 294.851C319.192 295.286 318.631 295.56 318.716 295.044C320.382 286.501 317.9 268.076 314.16 257.92Z" fill="#263238"/>
<path d="M303.076 298.768C305.949 286.549 304.402 274.701 300.968 262.724C300.968 262.579 301.155 262.53 301.223 262.724C304.623 268.156 305.949 275.991 306.459 282.181C307.035 287.915 306.027 293.692 303.535 298.945C303.433 299.074 303.025 299.026 303.076 298.768Z" fill="#263238"/>
</g>
<defs>
<clipPath id="clip0_1_26">
<rect width="850" height="806" fill="white"/>
</clipPath>
</defs>
</svg>
